<svg xmlns="http://www.w3.org/2000/svg" xmlns:xlink="http://www.w3.org/1999/xlink" width="131" height="42.853" viewBox="0 0 131 42.853"><defs><style>.a{fill:#f9f9f9;}.b{fill:#f9f9fa;}.c{clip-path:url(#a);}.d{fill:url(#b);}.e{fill:url(#d);}.f{fill:url(#f);}.g{fill:url(#h);}</style><clipPath id="a"><path d="M25.5,15.007l-5.907-3.412S8.832,5.381,8.2,5.018s-1.263-.146-1.263.618v26.8c0,.568.452.821,1,.5s11.656-6.73,11.656-6.73L25.5,22.8s5.012-2.894,5.682-3.278.6-.914.037-1.216S25.5,15.007,25.5,15.007Z" transform="translate(-6.936 -4.845)"/></clipPath><linearGradient id="b" x1="938.575" y1="255.596" x2="938.672" y2="255.596" gradientUnits="objectBoundingBox"><stop offset="0" stop-color="#257cb0"/><stop offset="0.286" stop-color="#4a93b5"/><stop offset="0.767" stop-color="#78bcbb"/><stop offset="1" stop-color="#89cfbd"/></linearGradient><linearGradient id="d" x1="320.467" y1="735.94" x2="320.544" y2="735.94" gradientUnits="objectBoundingBox"><stop offset="0" stop-color="#52c1ad"/><stop offset="1" stop-color="#dee89a"/></linearGradient><linearGradient id="f" x1="584.801" y1="399.329" x2="584.878" y2="399.329" gradientUnits="objectBoundingBox"><stop offset="0" stop-color="#ec413d"/><stop offset="0.167" stop-color="#da4452"/><stop offset="0.575" stop-color="#b0487a"/><stop offset="0.862" stop-color="#954a92"/><stop offset="1" stop-color="#8a4a9d"/></linearGradient><linearGradient id="h" x1="1755.68" y1="1302.351" x2="1755.814" y2="1302.351" gradientUnits="objectBoundingBox"><stop offset="0" stop-color="#f58879"/><stop offset="0.119" stop-color="#f69079"/><stop offset="0.713" stop-color="#fcb877"/><stop offset="1" stop-color="#fec874"/></linearGradient></defs><path d="M131.241,37.079a5.788,5.788,0,0,1-5.787,5.79H6.031a5.791,5.791,0,0,1-5.79-5.79V5.807A5.791,5.791,0,0,1,6.031.017H125.454a5.788,5.788,0,0,1,5.787,5.79Z" transform="translate(-0.241 -0.017)"/><path class="a" d="M72.713,22.528a3.584,3.584,0,0,1-1.5-.3,2.874,2.874,0,0,1-1.143-.931h-.092a11.278,11.278,0,0,1,.092,1.4v3.472H68.786V13.936h1.042l.179,1.155h.061a2.972,2.972,0,0,1,1.145-1,3.472,3.472,0,0,1,1.5-.309,3.133,3.133,0,0,1,2.6,1.148,5.079,5.079,0,0,1,.908,3.218,5.043,5.043,0,0,1-.924,3.233A3.124,3.124,0,0,1,72.713,22.528Zm-.182-7.661a2.27,2.27,0,0,0-1.872.716,3.673,3.673,0,0,0-.592,2.279v.285a4.252,4.252,0,0,0,.592,2.547,2.265,2.265,0,0,0,1.9.764,1.987,1.987,0,0,0,1.709-.882,4.2,4.2,0,0,0,.623-2.444,4.026,4.026,0,0,0-.623-2.42A2.031,2.031,0,0,0,72.531,14.867Z" transform="translate(29.236 5.902)"/><rect class="a" width="1.28" height="11.982" transform="translate(107.136 16.297)"/><path class="a" d="M82.943,22.371l-.255-1.2h-.061a3.541,3.541,0,0,1-1.263,1.073,3.767,3.767,0,0,1-1.566.283,2.809,2.809,0,0,1-1.963-.646,2.354,2.354,0,0,1-.715-1.839q0-2.555,4.087-2.681l1.433-.044V16.79a2.126,2.126,0,0,0-.428-1.463,1.759,1.759,0,0,0-1.369-.475,5.592,5.592,0,0,0-2.388.646l-.386-.98a6.179,6.179,0,0,1,2.854-.725,3.21,3.21,0,0,1,2.237.672,2.789,2.789,0,0,1,.729,2.148V22.37Zm-2.887-.9a2.592,2.592,0,0,0,1.878-.655,2.426,2.426,0,0,0,.685-1.832V18.22l-1.281.056a4.635,4.635,0,0,0-2.2.472,1.434,1.434,0,0,0-.679,1.307,1.336,1.336,0,0,0,.422,1.055A1.746,1.746,0,0,0,80.056,21.47Z" transform="translate(32.82 5.908)"/><path class="a" d="M82.374,13.89h1.371L85.592,18.7a18.472,18.472,0,0,1,.756,2.381h.061c.067-.263.207-.709.419-1.343s.911-2.584,2.092-5.847h1.369L86.664,23.5a4.81,4.81,0,0,1-1.257,2.022,2.693,2.693,0,0,1-1.768.595,4.892,4.892,0,0,1-1.157-.132V24.963a4.289,4.289,0,0,0,.947.094,1.955,1.955,0,0,0,1.878-1.48l.469-1.2Z" transform="translate(35.079 5.949)"/><path class="a" d="M56.953,14.631a2.873,2.873,0,0,1-.226,4.889,1.255,1.255,0,0,0-.495.864.986.986,0,0,0,.455.758l.639.495a3.07,3.07,0,0,1,1.483,2.473c0,1.659-1.606,3.335-4.642,3.335-2.561,0-3.8-1.22-3.8-2.524a2.546,2.546,0,0,1,1.36-2.155,7.608,7.608,0,0,1,3.368-.812,1.837,1.837,0,0,1-.528-1.2,1.6,1.6,0,0,1,.176-.686c-.2.019-.388.033-.566.033a2.787,2.787,0,0,1-2.927-2.771,3.167,3.167,0,0,1,1.125-2.362,4.8,4.8,0,0,1,3.159-.974h3.639l-1.131.636H56.953ZM55.7,22.467a2.66,2.66,0,0,0-.4-.019,7.16,7.16,0,0,0-1.858.282,1.992,1.992,0,0,0-1.517,1.818c0,1.254,1.218,2.156,3.109,2.156,1.693,0,2.594-.808,2.594-1.909C57.628,23.9,57.045,23.423,55.7,22.467Zm.511-3.352a1.792,1.792,0,0,0,.445-1.291c0-1.271-.759-3.246-2.224-3.246a1.652,1.652,0,0,0-1.237.581,2.052,2.052,0,0,0-.388,1.308c0,1.181.685,3.14,2.207,3.14A1.778,1.778,0,0,0,56.212,19.115Z" transform="translate(21.317 5.993)"/><path class="a" d="M48.5,22.262A4.158,4.158,0,0,1,44.2,18.1a4.368,4.368,0,0,1,4.563-4.28,4.118,4.118,0,0,1,4.209,4.157A4.3,4.3,0,0,1,48.5,22.262Zm2.2-1.427a3.19,3.19,0,0,0,.528-1.958c0-1.55-.738-4.509-2.924-4.509a2.445,2.445,0,0,0-1.584.6,2.669,2.669,0,0,0-.812,2.151c0,1.745.864,4.618,3,4.618A2.27,2.27,0,0,0,50.7,20.834Z" transform="translate(18.662 5.919)"/><path class="a" d="M41.818,22.262a4.158,4.158,0,0,1-4.3-4.161,4.369,4.369,0,0,1,4.565-4.28,4.12,4.12,0,0,1,4.211,4.157A4.306,4.306,0,0,1,41.818,22.262Zm2.2-1.427a3.2,3.2,0,0,0,.529-1.958c0-1.55-.741-4.509-2.926-4.509a2.452,2.452,0,0,0-1.586.6,2.667,2.667,0,0,0-.809,2.151c0,1.745.862,4.618,3,4.618A2.273,2.273,0,0,0,44.022,20.834Z" transform="translate(15.79 5.919)"/><path class="a" d="M40.248,23.184l-2.534.583a19.085,19.085,0,0,1-2.923.3c-4.891,0-6.75-3.6-6.75-6.412,0-3.435,2.64-6.625,7.159-6.625a10.179,10.179,0,0,1,2.711.373,6.922,6.922,0,0,1,2.34,1.1l-1.472,1.4-.619.143.442-.709a5.056,5.056,0,0,0-3.791-1.665A4.894,4.894,0,0,0,29.9,16.9a6.267,6.267,0,0,0,6.272,6.467,5.244,5.244,0,0,0,2.251-.448V20.068l-2.676.142,1.417-.762h3.755l-.46.446a.411.411,0,0,0-.177.282c-.019.159-.034.676-.034.855Z" transform="translate(11.714 4.719)"/><path class="a" d="M60.024,22.795c-.583-.056-.706-.159-.706-.854V11.911l.009-.113c.076-.621.252-.725.8-1.044H57.59l-1.33.638h1.357V11.4l0-.009V22.33c0,.352-.067.4-.475.935h3.133l.656-.388C60.626,22.845,60.326,22.828,60.024,22.795Z" transform="translate(23.849 4.6)"/><path class="a" d="M65.867,21.636c-.2.1-.386.23-.581.316a4.057,4.057,0,0,1-1.7.335,3.756,3.756,0,0,1-2.341-.686,4.557,4.557,0,0,1-1.8-3.711,3.992,3.992,0,0,1,4.03-4.067,3.409,3.409,0,0,1,1.81.493,2.906,2.906,0,0,1,1.231,1.743L62.38,17.73l-1.354.1c.442,2.235,1.952,3.538,3.625,3.538a4.545,4.545,0,0,0,2.145-.616ZM64.209,16.39c.332-.122.508-.227.508-.473a1.746,1.746,0,0,0-1.74-1.513,2.167,2.167,0,0,0-2.025,2.443c0,.3.03.618.053.931Z" transform="translate(25.218 5.92)"/><path class="a" d="M65.28,13.944V15.1h-.143V13.944h-.382v-.122h.908v.122Z" transform="translate(27.503 5.92)"/><path class="a" d="M66.519,15.1V13.932h-.007L66.155,15.1h-.11l-.359-1.173H65.68V15.1h-.126V13.822h.217l.325,1.035H66.1l.32-1.035h.22V15.1Z" transform="translate(27.846 5.92)"/><path class="b" d="M31.549,9.692h-.879a5.746,5.746,0,0,0-.252-1.028H29.146a5.345,5.345,0,0,0-.257,1.028h-.828q0-.107.642-1.759a13.69,13.69,0,0,0,.642-1.82h1.041a15.413,15.413,0,0,0,.582,1.795A15.867,15.867,0,0,1,31.549,9.692Zm-1.27-1.553A15.643,15.643,0,0,1,29.807,6.6h-.043q0,.107-.486,1.534Z" transform="translate(11.723 2.605)"/><path class="b" d="M33.87,9.693h-.681a6.592,6.592,0,0,0-.756-1.19,6.629,6.629,0,0,1-.9-1.554h-.041a10.016,10.016,0,0,1,.067,1.09q0,.68.039,1.655h-.676q.043-.849.041-1.872,0-1.006-.041-1.709h.817a5.153,5.153,0,0,0,.681,1.163,6.894,6.894,0,0,1,.829,1.466h.041a10.3,10.3,0,0,1-.067-1.1c0-.5-.011-1.007-.037-1.529h.688c-.027.453-.039,1.025-.039,1.707S33.842,9.136,33.87,9.693Z" transform="translate(12.951 2.604)"/><path class="b" d="M36.68,7.783a2.023,2.023,0,0,1-.5,1.364,1.749,1.749,0,0,1-1.4.583c-.272,0-.645-.011-1.124-.033q.036-.83.036-1.873,0-1-.036-1.707h.482q.118,0,.352-.009c.156-.006.259-.009.306-.009a1.857,1.857,0,0,1,1.441.495A1.717,1.717,0,0,1,36.68,7.783ZM35.93,7.9a1.334,1.334,0,0,0-.307-.891,1.17,1.17,0,0,0-.942-.36,2.783,2.783,0,0,0-.325.026c.019.368.027.749.027,1.151,0,.438.009.871.027,1.3l.358.034a1.036,1.036,0,0,0,.875-.368A1.409,1.409,0,0,0,35.93,7.9Z" transform="translate(14.127 2.599)"/><path class="b" d="M39.213,9.7H38.4a5.379,5.379,0,0,0-.489-1.2.641.641,0,0,0-.551-.227h-.306c0,.47.009.945.026,1.427h-.765c.024-.555.036-1.178.036-1.875,0-.668-.011-1.236-.036-1.707h.476c.056,0,.17,0,.347-.009s.335-.007.483-.007q1.263,0,1.263.864a.969.969,0,0,1-.721.955v.041a.852.852,0,0,1,.486.435A9.325,9.325,0,0,1,39.213,9.7Zm-1.031-2.53c0-.365-.236-.548-.705-.548a2.532,2.532,0,0,0-.458.039c.021.285.03.654.03,1.11l.256.007C37.89,7.774,38.182,7.573,38.182,7.168Z" transform="translate(15.272 2.599)"/><path class="b" d="M42.154,7.862a1.969,1.969,0,0,1-.518,1.4,1.68,1.68,0,0,1-1.28.556,1.619,1.619,0,0,1-1.216-.511,1.791,1.791,0,0,1-.491-1.3,1.973,1.973,0,0,1,.518-1.4,1.68,1.68,0,0,1,1.28-.556,1.62,1.62,0,0,1,1.217.509A1.8,1.8,0,0,1,42.154,7.862Zm-.759.08a1.419,1.419,0,0,0-.295-.932.905.905,0,0,0-.726-.358.837.837,0,0,0-.684.36,1.436,1.436,0,0,0-.28.911,1.4,1.4,0,0,0,.3.93.9.9,0,0,0,.725.36.836.836,0,0,0,.682-.362A1.438,1.438,0,0,0,41.394,7.942Z" transform="translate(16.276 2.579)"/><path class="b" d="M42.422,9.693h-.779q.036-.849.036-1.873,0-1-.036-1.707h.779c-.024.46-.036,1.031-.036,1.707Q42.387,8.858,42.422,9.693Z" transform="translate(17.563 2.604)"/><path class="b" d="M45.886,7.783a2.023,2.023,0,0,1-.5,1.364,1.754,1.754,0,0,1-1.4.583c-.27,0-.646-.011-1.123-.033.024-.553.034-1.177.034-1.873q0-1-.034-1.707h.482c.077,0,.2,0,.352-.009S43.952,6.1,44,6.1a1.852,1.852,0,0,1,1.44.495A1.712,1.712,0,0,1,45.886,7.783Zm-.751.119a1.334,1.334,0,0,0-.307-.891,1.169,1.169,0,0,0-.941-.36,2.826,2.826,0,0,0-.326.026c.02.368.029.749.029,1.151,0,.438.009.871.029,1.3l.358.034a1.036,1.036,0,0,0,.875-.368A1.424,1.424,0,0,0,45.136,7.9Z" transform="translate(18.086 2.599)"/><path class="b" d="M49.725,9.692h-.879A6.046,6.046,0,0,0,48.6,8.664H47.323a5.335,5.335,0,0,0-.26,1.028h-.829a18.006,18.006,0,0,1,.648-1.759,13.441,13.441,0,0,0,.636-1.82H48.56a15.275,15.275,0,0,0,.583,1.795A15.617,15.617,0,0,1,49.725,9.692ZM48.454,8.139A14.656,14.656,0,0,1,47.985,6.6H47.94a15.167,15.167,0,0,1-.486,1.534Z" transform="translate(19.537 2.605)"/><path class="b" d="M51.706,7.055a1.07,1.07,0,0,1-.489.972,2.161,2.161,0,0,1-1.2.313l-.184-.006c0,.345.009.8.03,1.364H49.09c.027-.528.036-1.153.036-1.873q0-.991-.036-1.707h.48c.069,0,.2,0,.39-.009s.36-.009.5-.009a1.557,1.557,0,0,1,.882.237A.793.793,0,0,1,51.706,7.055ZM51,7.206c0-.392-.26-.589-.779-.589a2.236,2.236,0,0,0-.413.041q.03.521.03,1.177l.159.006C50.66,7.841,51,7.63,51,7.206Z" transform="translate(20.766 2.599)"/><path class="b" d="M54.017,7.055a1.076,1.076,0,0,1-.489.972,2.2,2.2,0,0,1-1.2.313l-.187-.006c0,.345.011.8.03,1.364H51.4c.024-.528.034-1.153.034-1.873,0-.661-.014-1.23-.034-1.707h.478c.072,0,.2,0,.389-.009s.36-.009.5-.009a1.579,1.579,0,0,1,.885.237A.788.788,0,0,1,54.017,7.055Zm-.715.152c0-.392-.263-.589-.779-.589a2.291,2.291,0,0,0-.416.041c.023.347.03.739.03,1.177l.16.006Q53.3,7.841,53.3,7.206Z" transform="translate(21.758 2.599)"/><path class="b" d="M58.053,7.862a1.967,1.967,0,0,1-.516,1.4,1.676,1.676,0,0,1-1.28.556,1.619,1.619,0,0,1-1.216-.511,1.792,1.792,0,0,1-.492-1.3,1.972,1.972,0,0,1,.516-1.4,1.672,1.672,0,0,1,1.28-.556,1.625,1.625,0,0,1,1.221.509A1.8,1.8,0,0,1,58.053,7.862Zm-.759.08A1.419,1.419,0,0,0,57,7.009a.9.9,0,0,0-.724-.358.833.833,0,0,0-.685.36,1.436,1.436,0,0,0-.282.911,1.4,1.4,0,0,0,.3.93.9.9,0,0,0,.726.36.836.836,0,0,0,.682-.362A1.445,1.445,0,0,0,57.293,7.942Z" transform="translate(23.114 2.579)"/><path class="b" d="M60.5,9.693h-.682a6.983,6.983,0,0,0-.754-1.19,6.734,6.734,0,0,1-.905-1.554h-.041a10.073,10.073,0,0,1,.07,1.09c0,.453.014,1.005.036,1.655h-.679c.03-.566.039-1.191.039-1.872s-.014-1.24-.039-1.709h.818a5.033,5.033,0,0,0,.676,1.163,7.016,7.016,0,0,1,.835,1.466h.043a10.362,10.362,0,0,1-.07-1.1c0-.5-.014-1.007-.036-1.529h.685c-.029.453-.036,1.025-.036,1.707S60.473,9.136,60.5,9.693Z" transform="translate(24.4 2.604)"/><g transform="translate(9.574 12.904)"><g transform="translate(0 0)"><g class="c"><path class="d" d="M21.57,19.04,6.936,4.529v29.02Z" transform="translate(-6.936 -4.981)"/></g></g><g transform="translate(0 0)"><g class="c"><path class="e" d="M6.936,4.561,21.57,19.071l3.93-3.9L19.592,11.76,6.936,4.455Z" transform="translate(-6.936 -5.012)"/></g></g><g transform="translate(0 0)"><g class="c"><path class="f" d="M25.5,18.571l-3.93-3.9L6.936,29.185v.106l12.656-7.308Z" transform="translate(-6.936 -0.617)"/></g></g><g transform="translate(0 0)"><g class="c"><path class="g" d="M27.851,15.848l-6.753-3.9-3.93,3.9,3.93,3.9Z" transform="translate(-2.535 -1.789)"/></g></g></g></svg>