<svg xmlns="http://www.w3.org/2000/svg" width="30" height="30" viewBox="0 0 30 30"><defs><style>.a{fill:#c6cede;}</style></defs><path class="a" d="M23.419,22.068V16.212c0-3.136-1.675-4.6-3.908-4.6A3.367,3.367,0,0,0,16.453,13.3V11.855H13.059c.045.958,0,10.214,0,10.214h3.394V16.364a2.306,2.306,0,0,1,.111-.826A1.855,1.855,0,0,1,18.3,14.3c1.228,0,1.721.936,1.721,2.309V22.07l3.393,0ZM9.479,10.46A1.77,1.77,0,1,0,9.5,6.93a1.77,1.77,0,1,0-.045,3.53ZM15,30A15,15,0,1,1,30,15,15,15,0,0,1,15,30Zm-3.823-7.932V11.854H7.782V22.068h3.395Z"/></svg>