<svg xmlns="http://www.w3.org/2000/svg" width="14.5" height="10.379" viewBox="0 0 14.5 10.379">
  <g id="Group_373" data-name="Group 373" transform="translate(-1.8 -1.92)">
    <path id="Path_670" data-name="Path 670" d="M14.8,7.75l-.625-.29a2.356,2.356,0,0,1-.336-.2,2.7,2.7,0,0,0,.672-1.8,2.366,2.366,0,0,0-2.183-2.5,2.355,2.355,0,0,0-2.183,2.5,2.693,2.693,0,0,0,.673,1.8,2.371,2.371,0,0,1-.337.2l-.626.29c-.122.061-.229.122-.351.183A2.5,2.5,0,0,0,8.256,6.713l-.626-.29a2.429,2.429,0,0,1-.336-.2,2.7,2.7,0,0,0,.672-1.8,2.365,2.365,0,0,0-2.183-2.5A2.355,2.355,0,0,0,3.6,4.423a2.7,2.7,0,0,0,.672,1.8,2.429,2.429,0,0,1-.336.2l-.626.29A2.566,2.566,0,0,0,1.8,9.048v1.1a1.12,1.12,0,0,0,1.114,1.113H8.348A1.116,1.116,0,0,0,9.462,12.3h5.724A1.12,1.12,0,0,0,16.3,11.185v-1.1A2.576,2.576,0,0,0,14.8,7.75ZM12.316,3.538a1.8,1.8,0,0,1,1.618,1.938,1.807,1.807,0,0,1-1.618,1.938A1.807,1.807,0,0,1,10.7,5.476,1.8,1.8,0,0,1,12.316,3.538ZM5.784,2.5A1.8,1.8,0,0,1,7.4,4.438,1.807,1.807,0,0,1,5.784,6.377,1.8,1.8,0,0,1,4.166,4.438,1.786,1.786,0,0,1,5.784,2.5Zm2.564,7.57v.612H2.914a.548.548,0,0,1-.549-.551v-1.1A1.993,1.993,0,0,1,3.54,7.216l.626-.29a2.524,2.524,0,0,0,.549-.336,1.941,1.941,0,0,0,2.137,0,2.524,2.524,0,0,0,.549.336l.626.29A1.951,1.951,0,0,1,9.065,8.3,2.559,2.559,0,0,0,8.348,10.07Zm7.387,1.1a.547.547,0,0,1-.549.551H9.462a.547.547,0,0,1-.549-.551v-1.1a1.993,1.993,0,0,1,1.175-1.816l.627-.29a2.577,2.577,0,0,0,.548-.336,1.941,1.941,0,0,0,2.137,0,2.494,2.494,0,0,0,.549.336l.626.29h0A1.993,1.993,0,0,1,15.75,10.07v1.1Z" fill="#666"/>
  </g>
</svg>
