<svg xmlns="http://www.w3.org/2000/svg" width="47.738" height="50.5" viewBox="0 0 47.738 50.5"><defs><style>.a,.b{fill:none;}.a{stroke:#315f99;}.c{fill:#568ac8;}.d{fill:#315f99;}.e{fill:#fcd088;}.f{fill:#fac56f;}.g{fill:#333;}.h{fill:#242424;}.i{fill:#d89028;}.j{fill:#e4ebef;}.k{fill:#d0d9dd;}</style></defs><path class="a" d="M93.1,89.086l-17.03,16.508v24.594h35.142V105.595L94.185,89.086a.777.777,0,0,0-1.082,0Z" transform="translate(-69.775 -80.189)"/><path class="b" d="M260.623,105.6v24.594H258.58V106.333L241.651,89.923l.86-.834a.777.777,0,0,1,1.082,0Z" transform="translate(-219.183 -80.191)"/><path class="c" d="M34.918.209,12.687,21a3.469,3.469,0,1,0,4.784,5.025L34.908,9.12a.777.777,0,0,1,1.082,0l17.437,16.9A3.469,3.469,0,1,0,58.212,21L35.98.209a.777.777,0,0,0-1.062,0Z" transform="translate(-11.58 0)"/><path class="d" d="M264.865,23.505a3.494,3.494,0,0,1-2.459,3.353,3.575,3.575,0,0,0,.714-2.132,3.391,3.391,0,0,0-1.107-2.507L239.78,1.431a.775.775,0,0,0-.408-.2L240.465.21a.777.777,0,0,1,1.061,0L263.758,21A3.394,3.394,0,0,1,264.865,23.505Z" transform="translate(-217.127 -0.001)"/><g transform="translate(14.578 21.3)"><path class="e" d="M198.9,268.787a6.244,6.244,0,0,1-6.244-6.244v-7.68h12.488v7.68a6.244,6.244,0,0,1-6.244,6.244Z" transform="translate(-189.549 -251.273)"/><path class="f" d="M252.948,269.564v6.245a6.245,6.245,0,0,1-7.315,6.151,6.244,6.244,0,0,0,5.172-6.151v-6.245Z" transform="translate(-237.354 -264.54)"/><path class="g" d="M176.906,219.164a11.856,11.856,0,0,0-6.86-.919,10.818,10.818,0,0,0-3.162.863,4.439,4.439,0,0,0-3.772-.023c-2.632,1.4-2.576,3.689-1.756,6.177a11.045,11.045,0,0,0,2.591,3.651V226.4c2.918-1.845,3.391-3.733,3.391-3.733s1.709,3.275,9.113,3.569v2.671a11.049,11.049,0,0,0,2.591-3.65c.82-2.487.5-4.695-2.136-6.1Z" transform="translate(-160.857 -218.115)"/><path class="h" d="M247.9,225.262a11.04,11.04,0,0,1-2.591,3.65v-1.2a7.644,7.644,0,0,0,.63-1.248c.907-2.753.549-5.2-2.364-6.749a12.27,12.27,0,0,0-6.407-1.13,12.232,12.232,0,0,1,1.737-.344,11.85,11.85,0,0,1,6.859.919c2.631,1.4,2.956,3.61,2.135,6.1Z" transform="translate(-229.718 -218.115)"/></g><g transform="translate(20.252 14.295)"><g transform="translate(1.931 2.549)"><path class="i" d="M241.371,174.408a.731.731,0,0,1-.567-.269.508.508,0,0,0-.781-.006.732.732,0,0,1-1.119-.945,1.973,1.973,0,0,1,3.034.024.732.732,0,0,1-.567,1.2Z" transform="translate(-238.73 -172.488)"/></g><path class="i" d="M225.463,149.225a.731.731,0,0,1-.567-.269,3.017,3.017,0,0,0-4.643-.037.732.732,0,0,1-1.119-.945,4.482,4.482,0,0,1,6.9.055.733.733,0,0,1-.567,1.2Z" transform="translate(-218.961 -146.383)"/></g><g transform="translate(13.084 35.237)"><path class="c" d="M167.134,375.584H145.565v-13.92a.832.832,0,0,1,.832-.832H166.3a.832.832,0,0,1,.832.832v13.92Z" transform="translate(-145.565 -360.832)"/><path class="c" d="M340.142,361.668v13.92h-2.013v-13.92a.832.832,0,0,0-.832-.832h2.013A.832.832,0,0,1,340.142,361.668Z" transform="translate(-318.573 -360.836)"/><circle class="j" cx="2.214" cy="2.214" r="2.214" transform="translate(8.571 4.987)"/><path class="k" d="M238.875,415.144a2.214,2.214,0,0,1-4.307.722,2.184,2.184,0,0,0,.692.111,2.214,2.214,0,0,0,2.214-2.214,2.187,2.187,0,0,0-.121-.721,2.213,2.213,0,0,1,1.522,2.1Z" transform="translate(-225.876 -407.943)"/></g></svg>