<?xml version="1.0" encoding="utf-8"?>
<!-- Generator: Adobe Illustrator 15.0.0, SVG Export Plug-In . SVG Version: 6.00 Build 0)  -->
<!DOCTYPE svg PUBLIC "-//W3C//DTD SVG 1.1//EN" "http://www.w3.org/Graphics/SVG/1.1/DTD/svg11.dtd">
<svg version="1.1" id="Layer_1" xmlns="http://www.w3.org/2000/svg" xmlns:xlink="http://www.w3.org/1999/xlink" x="0px" y="0px"
	 width="42px" height="42px" viewBox="0 0 42 42" enable-background="new 0 0 42 42" xml:space="preserve">
<g>
	<path fill="#D89028" d="M32.16,32.912h-2.533c-0.344,0-0.625,0.277-0.625,0.623v0.209c0,0.344,0.281,0.623,0.625,0.623h5.896
		c0.346,0,0.623-0.279,0.623-0.623v-0.209c0-0.346-0.277-0.623-0.623-0.623h-2.393v-2.178c-0.281-0.127-0.605-0.287-0.971-0.482
		V32.912z"/>
	<path fill="#D89028" d="M29.453,28.818c0,0.344,0.279,0.625,0.625,0.625h0.695c-0.4-0.254-0.826-0.543-1.271-0.867
		C29.471,28.65,29.453,28.732,29.453,28.818z"/>
	<path fill="#D89028" d="M38.186,17.854l-1.602,1.486l-0.479,2.214c0.012,0.217,0.02,0.437,0.02,0.662
		c-0.002,2.49-0.689,5.451-1.174,7.227h0.729l2.043-9.455l1.311-1.219c0.252-0.235,0.27-0.629,0.033-0.882
		C38.832,17.635,38.438,17.62,38.186,17.854z"/>
	<path fill="#568AC8" d="M25.795,26.434c-0.107,0.055-0.215,0.135-0.297,0.225l-3.121,3.398c-0.39,0.422-0.361,1.082,0.063,1.471
		c0.199,0.186,0.451,0.275,0.703,0.275c0.281,0,0.563-0.113,0.768-0.338l2.992-3.258l1.293-0.652
		c-0.537-0.447-1.092-0.945-1.652-1.498L25.795,26.434z"/>
	<path fill="#568AC8" d="M34.123,30.654c0.045-0.141,0.105-0.346,0.18-0.602c0.152-0.52,0.355-1.254,0.557-2.105
		c0.406-1.699,0.809-3.871,0.809-5.73c0-1.029-0.127-1.962-0.426-2.653c-0.307-0.692-0.752-1.136-1.447-1.287
		c-0.244-0.052-0.461-0.076-0.652-0.076c-0.697,0.006-1.102,0.285-1.482,0.78c-0.377,0.495-0.684,1.208-1.08,1.978
		c-0.316,0.617-0.701,1.27-1.242,1.875c0.793-0.238,1.488-0.672,2.102-1.313c0.396-0.42,0.666-0.844,0.822-1.128
		c0.09-0.16,0.148-0.286,0.182-0.364c0.02-0.04,0.029-0.071,0.039-0.091l0.006-0.013c0.156-0.436,0.621-0.693,1.074-0.598
		c0.043,0.01,0.084,0.021,0.127,0.037c0.234,0.084,0.424,0.256,0.527,0.482c0.107,0.227,0.119,0.481,0.033,0.716l-0.006,0.011v0.002
		c-0.104,0.276-0.52,1.25-1.439,2.229c-0.773,0.83-2.479,2.205-5.232,2.107c-0.055-0.002-0.111-0.008-0.164-0.02
		c-0.232-0.049-0.428-0.184-0.561-0.363c-0.273,0.105-0.564,0.199-0.875,0.279C29.68,28.814,33.227,30.32,34.123,30.654z"/>
	<path fill="#FCD088" d="M30.666,14.198c0.639-1.123,2.068-1.517,3.193-0.88c1.121,0.638,1.516,2.066,0.879,3.189
		c-0.635,1.124-2.066,1.518-3.189,0.88C30.424,16.751,30.031,15.322,30.666,14.198z"/>
	<path fill="#568AC8" d="M27.449,24.689c0.041,0.008,0.086,0.014,0.129,0.016c2.408,0.084,4.084-0.98,5.072-2.041
		c1-1.065,1.381-2.117,1.402-2.172c0.139-0.378-0.057-0.796-0.436-0.933c-0.379-0.137-0.797,0.06-0.934,0.436l-0.008,0.021
		c-0.01,0.021-0.021,0.053-0.041,0.099c-0.039,0.088-0.102,0.22-0.191,0.38c-0.178,0.319-0.455,0.75-0.852,1.167
		c-0.803,0.842-2.012,1.643-3.967,1.588c-0.402-0.014-0.74,0.301-0.754,0.703C26.861,24.311,27.109,24.617,27.449,24.689z"/>
	<path fill="#D89028" d="M26.859,29.973c-0.109-0.033-0.227,0.031-0.258,0.141l-0.809,2.799H20.89l-0.806-2.797
		c-0.033-0.111-0.148-0.176-0.258-0.143c-0.11,0.031-0.175,0.145-0.141,0.256l0.773,2.684h-1.84v-3.416h2.305
		c0.345,0,0.625-0.279,0.625-0.625v-0.363c0-0.346-0.28-0.625-0.625-0.625h-3.641c-0.345,0-0.624,0.279-0.624,0.625v0.363
		c0,0.346,0.279,0.625,0.624,0.625h0.363v3.416h-0.832c-0.345,0-0.625,0.277-0.625,0.623v0.209c0,0.344,0.28,0.623,0.625,0.623h9.45
		c0.346,0,0.623-0.279,0.623-0.623v-0.209c0-0.346-0.277-0.623-0.623-0.623h-0.037l0.775-2.684
		C27.033,30.119,26.971,30.004,26.859,29.973z"/>
	<rect x="25.125" y="30.535" fill="#D89028" width="1.064" height="0.26"/>
	<rect x="20.56" y="30.535" fill="#D89028" width="1.209" height="0.26"/>
	<rect x="24.072" y="31.811" fill="#D89028" width="1.404" height="0.131"/>
	<rect x="21.417" y="32.254" fill="#D89028" width="1.405" height="0.129"/>
	<rect x="35.836" y="30.465" fill="#D89028" width="5.805" height="0.764"/>
	<path fill="#315F99" d="M5.943,38.887c0,0.844,0.683,1.527,1.528,1.527c0.843,0,1.526-0.684,1.526-1.527v-8.639h0.511v8.639
		c0,0.844,0.683,1.527,1.527,1.527c0.843,0,1.528-0.684,1.528-1.527v-8.639h3.31l-2.663-13.7l0.073,0.089
		c1.027,1.311,2.256,3.842,2.884,8.613c0.066,0.498,0.493,0.861,0.984,0.861c0.042,0,0.086,0,0.13-0.008
		c0.544-0.072,0.926-0.57,0.855-1.115c-0.706-5.337-2.154-8.266-3.55-9.894c-0.598-0.7-1.184-1.143-1.675-1.425l-1.239,4.407
		l1.911,8.826c0,0-0.152,0.918-0.916,0.918c-0.763,0-6.064,0-6.828,0s-0.917-0.918-0.917-0.918l1.911-8.826l-1.24-4.407
		c-0.491,0.282-1.077,0.725-1.674,1.425c-1.397,1.627-2.846,4.557-3.551,9.896c-0.072,0.543,0.312,1.041,0.854,1.115
		c0.544,0.07,1.042-0.311,1.115-0.855c0.644-4.886,1.917-7.419,2.958-8.706L2.633,30.25h3.311V38.887z"/>
	<path fill="#315F99" d="M7.674,17.965h3.157l1.31-4.651c-0.187-0.063-0.329-0.095-0.413-0.108c-0.284-0.07-1.334-0.316-2.475-0.32
		c-1.14,0.003-2.189,0.25-2.474,0.32c-0.084,0.013-0.226,0.045-0.413,0.108L7.674,17.965z"/>
	<path fill="#FCD088" d="M10.298,12.027c1.044-0.352,1.886-1.217,2.153-2.369c0.412-1.766-0.688-3.531-2.453-3.943
		C8.231,5.305,6.466,6.403,6.055,8.17c-0.388,1.665,0.565,3.327,2.154,3.858c0.098,0.032,0.197,0.061,0.299,0.084
		C9.124,12.256,9.74,12.216,10.298,12.027z"/>
	<rect x="15.719" y="10.43" fill="#D89028" width="17.01" height="0.61"/>
	<rect x="24.799" y="4.523" fill="#568AC8" width="2.443" height="5.448"/>
	<rect x="25.311" y="3.358" fill="#568AC8" width="1.418" height="0.917"/>
	<rect x="27.854" y="4.523" fill="#568AC8" width="2.445" height="5.448"/>
	<rect x="28.365" y="3.358" fill="#568AC8" width="1.418" height="0.917"/>
	<path fill="#333333" d="M30.713,14.198c0.637-1.123,2.066-1.517,3.191-0.88c1.123,0.638,1.518,2.066,0.881,3.189
		c-0.637,1.124-0.199-0.517-1.326-1.155C32.336,14.716,30.076,15.322,30.713,14.198z"/>
	<path fill="#568AC8" d="M32.152,4.35c-0.324-0.316-0.639-0.632-0.957-0.957c-0.148-0.156-0.285-0.319-0.424-0.482
		c-0.094-0.112-0.078-0.266,0.018-0.372c0.396-0.43,0.91-0.58,1.463-0.643c0.67-0.079,1.289,0.035,1.857,0.393
		c0.369,0.237,0.688,0.528,0.949,0.887c0.09,0.129,0.068,0.317-0.053,0.41c-0.529,0.391-1.09,0.714-1.732,0.894
		c0.006-0.13-1.061-0.24-1.074-0.155L32.152,4.35z"/>
	<path fill="#568AC8" d="M32.83,6.788c-0.039,0.23-0.094,0.499-0.133,0.72c-0.088,0.579-0.176,1.158-0.275,1.735
		c-0.01,0.067-0.023,0.144-0.035,0.212c-0.021,0.18-0.117,0.278-0.26,0.35c-0.24,0.117-0.535,0.006-0.68-0.221
		c-0.055-0.087-0.074-0.186-0.057-0.288c0.102-0.603,0.205-1.205,0.299-1.81c0.045-0.271,0.094-0.552,0.139-0.823
		C31.859,6.58,32.832,6.771,32.83,6.788z"/>
	<polygon fill="#568AC8" points="31.896,6.612 32.16,4.29 32.213,4.29 31.941,6.619 	"/>
	<polygon fill="#568AC8" points="31.896,6.612 32.098,6.635 32.363,4.313 32.16,4.29 32.16,4.493 32.213,4.493 32.213,4.29 
		32.012,4.267 31.74,6.596 31.941,6.619 31.975,6.419 31.932,6.413 31.896,6.612 32.098,6.635 31.896,6.612 31.865,6.812 
		31.906,6.819 32.117,6.854 32.441,4.087 32.16,4.087 31.98,4.087 31.674,6.78 31.865,6.812 	"/>
	<polygon fill="#568AC8" points="32.803,6.748 32.762,6.732 33.252,4.457 33.295,4.464 	"/>
	<polygon fill="#568AC8" points="32.803,6.748 32.875,6.559 32.834,6.544 32.762,6.732 32.959,6.775 33.449,4.5 33.252,4.457 
		33.217,4.657 33.26,4.664 33.295,4.464 33.096,4.422 32.604,6.705 32.803,6.748 32.875,6.559 32.803,6.748 33,6.791 33.537,4.3 
		33.287,4.258 33.096,4.225 32.527,6.859 32.73,6.938 32.951,7.022 33,6.791 	"/>
	<path fill="#568AC8" d="M20.517,2.807c0.173-0.505,0.132-0.884-0.139-1.22l-1.859,3.744l0.385,0.73L20.517,2.807z"/>
	<path fill="#568AC8" d="M17.452,7.979c-0.167-0.222-0.4-0.387-0.708-0.388c-0.396,0-0.749,0.34-0.945,0.787
		c-0.274,0.626-0.202,1.159,0.133,1.485c0.413,0.403,0.886,0.076,1.313-0.441c0.342-0.697,0.684-1.394,1.026-2.09l-0.222-0.45
		L17.452,7.979z M17.101,9.057c-0.197,0.464-0.588,0.723-0.861,0.612c-0.273-0.109-0.371-0.611-0.183-1.079
		c0.189-0.47,0.558-0.725,0.832-0.614C17.161,8.086,17.379,8.399,17.101,9.057z"/>
	<path fill="#568AC8" d="M20.797,7.846c-0.478-0.394-0.997-0.241-1.27,0.181l-3.066-6.435c-0.256,0.25-0.321,0.609-0.256,1.042
		l1.855,3.863l0.456,0.355l1.229,2.661c0.145,0.241,0.322,0.426,0.566,0.488c0.634,0.081,0.912-0.229,0.97-0.724
		C21.346,8.732,21.24,8.21,20.797,7.846z M20.706,9.697c-0.273,0.11-0.665-0.149-0.861-0.614c-0.278-0.658-0.06-0.97,0.212-1.08
		c0.274-0.11,0.643,0.145,0.832,0.614C21.077,9.085,20.979,9.586,20.706,9.697z"/>
	<path fill="#568AC8" d="M24.105,2.04c-0.088-0.3-0.26-0.372-0.469-0.339l-1.939,0.352c-0.107,0.116-0.087,0.241,0.017,0.321h1.355
		l-0.01,0.308l-1.325-0.004c-0.163,0.025-0.149,0.271-0.004,0.312l1.339,0.006l-0.008,0.28l-1.31,0.013
		c-0.198,0.062-0.116,0.294,0,0.317l1.323,0.006l0.004,0.273h-1.335c-0.192,0.055-0.137,0.347-0.006,0.339l1.334-0.003L23.066,4.49
		l-1.319,0c-0.171,0.031-0.156,0.284-0.009,0.313l1.325,0.018l-0.006,0.294l-1.273,0.001c-0.222,0.018-0.208,0.305-0.022,0.31
		l1.31,0.016l-0.021,0.288l-1.286,0.007c-0.184,0.009-0.177,0.307-0.01,0.31l1.321,0.018l-0.008,0.303l-1.329,0.002
		c-0.166,0.03-0.138,0.309-0.003,0.317l1.338-0.007l-0.006,0.284l-1.31-0.008c-0.166,0.047-0.146,0.297-0.013,0.318l1.311,0.021
		l-0.004,0.291L21.77,7.57c-0.191,0.034-0.18,0.302-0.02,0.333l1.309,0.014l-0.002,0.274l-1.308,0.004
		c-0.157,0.064-0.158,0.294-0.003,0.325l1.313,0.011l-0.006,0.29l-1.301-0.018c-0.161,0.015-0.125,0.282-0.002,0.306l1.301,0.011
		l-0.014,0.317l-1.274-0.033c-0.176,0.014-0.159,0.288,0,0.338L23.77,10c0.178-0.009,0.303-0.135,0.375-0.378L24.105,2.04z"/>
	<path fill="#333333" d="M6.121,7.664c0.417-1.792,2.208-2.906,4-2.489c1.794,0.418,2.908,2.208,2.491,4.001
		c-0.417,1.792,0.088-2.393-2.773-3.081C6.937,5.576,5.702,9.457,6.121,7.664z"/>
</g>
</svg>
