<svg xmlns="http://www.w3.org/2000/svg" width="49.363" height="50.213" viewBox="0 0 49.363 50.213"><defs><style>.a{fill:#568ac8;}.b{fill:#315f99;}.c{fill:#6f9bd1;}.d{fill:#fec9a3;}.e{fill:#fcd088;}.f{fill:#e0e0de;}.g{fill:#f8ca7e;}.h{fill:#7a432a;}.i{fill:#d89028;}</style></defs><path class="a" d="M37.606,63.668V49.693a9.343,9.343,0,0,0,4.648-11.217l-5.5,5.455a2.063,2.063,0,0,1-2.909-.008L30.79,40.866a2.063,2.063,0,0,1-.009-2.909l5.455-5.5a9.331,9.331,0,0,0-4.044-.386,9.357,9.357,0,0,0-3.1,17.621V63.668a9.343,9.343,0,0,0-4.648,11.217l5.5-5.455a2.063,2.063,0,0,1,2.909.008l3.056,3.056a2.063,2.063,0,0,1,.008,2.909l-5.455,5.5a9.331,9.331,0,0,0,4.044.386,9.357,9.357,0,0,0,3.1-17.621Z" transform="translate(-23.987 -31.148)"/><path class="b" d="M37.606,240.009V229.333L29.1,237.844v2.165a9.343,9.343,0,0,0-4.648,11.217l5.5-5.455a2.063,2.063,0,0,1,2.909.008l3.056,3.056a2.063,2.063,0,0,1,.008,2.909l-5.455,5.5a9.331,9.331,0,0,0,4.044.386,9.357,9.357,0,0,0,3.1-17.621Z" transform="translate(-23.987 -207.489)"/><path class="c" d="M104,192h1.7v15.319H104Z" transform="translate(-95.488 -174.128)"/><path class="d" d="M216.34,242.723v-7.486a5.106,5.106,0,0,0-4.384-5.055l-7.531-1.076V224h-8.511v5.106l-7.878,1.688A5.106,5.106,0,0,0,184,235.787v6.936" transform="translate(-166.978 -202.724)"/><path class="e" d="M296,224v2.963a7.656,7.656,0,0,0,8.511,0V224Z" transform="translate(-267.063 -202.724)"/><path class="f" d="M211.956,273.076,204.425,272l-1.824,5.106h-4.863L195.915,272l-7.878,1.688A5.106,5.106,0,0,0,184,278.681v6.936h32.34v-7.486A5.106,5.106,0,0,0,211.956,273.076Z" transform="translate(-166.978 -245.617)"/><path class="a" d="M216.34,278.131v9.188h-5.957v8.511H189.957v-7.66H184v-9.489a5.106,5.106,0,0,1,4.036-4.992L195.915,272l4.255,11.915L204.425,272l7.531,1.076a5.108,5.108,0,0,1,4.384,5.055Z" transform="translate(-166.978 -245.617)"/><path class="b" d="M266.383,298.621v9.188h-5.957v8.511H240V312.3c9.744-3.873,17.942-7.987,24.8-17.373A5.1,5.1,0,0,1,266.383,298.621Z" transform="translate(-217.02 -266.108)"/><g transform="translate(22.129 34.893)"><path class="b" d="M328,384h1.7v11.915H328Z" transform="translate(-317.787 -380.596)"/><path class="b" d="M360,376h7.659v1.7H360Z" transform="translate(-346.383 -373.447)"/><path class="b" d="M296,368h1.7v1.7H296Z" transform="translate(-289.192 -366.298)"/><path class="b" d="M424,352h1.7v13.617H424Z" transform="translate(-403.575 -352)"/><path class="b" d="M232,352h1.7v13.617H232Z" transform="translate(-232 -352)"/></g><path class="b" d="M265.871,265.538l.652,7.824,4.645-2.654L269.076,264Z" transform="translate(-240.139 -238.468)"/><path class="b" d="M356.339,270.708l4.645,2.654.671-8.05L358.431,264Z" transform="translate(-320.983 -238.468)"/><path class="g" d="M187.4,395.064h2.553l16.17-3.4h4.255l1.7-1.7h4.255V384h-4.255l-5.957,2.553L184,388.255v3.4A3.4,3.4,0,0,0,187.4,395.064Z" transform="translate(-166.978 -345.702)"/><path class="e" d="M212.936,395.064h-2.553l-16.17-3.4h-4.255l-1.7-1.7H184V384h4.255l5.957,2.553,22.127,1.7v3.4A3.4,3.4,0,0,1,212.936,395.064Z" transform="translate(-166.978 -345.702)"/><path class="e" d="M279.319,55.66v5.957a7.66,7.66,0,0,1-7.66,7.66,7.857,7.857,0,0,1-.8-.04A7.662,7.662,0,0,1,264,61.617V55.66A7.66,7.66,0,0,1,271.659,48q.319,0,.632.026h0A7.66,7.66,0,0,1,279.319,55.66Z" transform="translate(-238.467 -45.447)"/><path class="g" d="M336.975,55.883V61.84a7.66,7.66,0,0,1-7.66,7.66,7.855,7.855,0,0,1-.8-.04,9.361,9.361,0,0,0,5.37-8.47V55.883a9.372,9.372,0,0,0-3.941-7.633A7.66,7.66,0,0,1,336.975,55.883Z" transform="translate(-296.123 -45.67)"/><path class="h" d="M268.021,52.378a18.549,18.549,0,0,0,7.277,0l.617-.123,3.4,3.972V55.66a7.66,7.66,0,0,0-15.319,0v.567l3.4-3.971Z" transform="translate(-238.467 -45.447)"/><path class="a" d="M271.661,104.964a2.584,2.584,0,0,1-3.007,2.538l-2.334-.389a20.461,20.461,0,0,0-6.715,0l-2.334.389a2.58,2.58,0,0,1-2.819-3.5h17.021A2.593,2.593,0,0,1,271.661,104.964Z" transform="translate(-229.769 -95.489)"/><path class="a" d="M273.021,29.106v3.4H256v-3.4A5.106,5.106,0,0,1,261.106,24h6.809a5.106,5.106,0,0,1,1.615.262c.095.032.188.066.28.1A5.1,5.1,0,0,1,273.021,29.106Z" transform="translate(-231.318 -24)"/><path class="b" d="M294.468,32.171v3.4H280a22.607,22.607,0,0,0,11.256-8.146A5.1,5.1,0,0,1,294.468,32.171Z" transform="translate(-252.765 -27.065)"/><path class="i" d="M304,72h6.809v3.4H304Z" transform="translate(-274.212 -66.894)"/><path class="i" d="M304,88h6.809v1.7H304Z" transform="translate(-274.212 -81.192)"/><path class="b" d="M354.564,104.964a2.584,2.584,0,0,1-3.007,2.538l-2.334-.389a20.347,20.347,0,0,0-2.183-.244A12.214,12.214,0,0,0,351.381,104h2.995A2.589,2.589,0,0,1,354.564,104.964Z" transform="translate(-312.673 -95.489)"/></svg>