<svg xmlns="http://www.w3.org/2000/svg" width="70.565" height="50.213" viewBox="0 0 70.565 50.213"><defs><style>.a{fill:#315f99;}.b{fill:#d89028;}.c{fill:#fcd088;}.d{fill:#333;}.e{fill:#568ac8;}.f{fill:#fff;}</style></defs><g transform="translate(52.897 0.378)"><path class="a" d="M58.9,8l-1.177-.235a3.466,3.466,0,0,0-.471-1.255l.706-.941a.831.831,0,0,0-.078-1.02l-1.8-1.726a.822.822,0,0,0-1.02-.078l-.941.628A3.7,3.7,0,0,0,52.941,2.9l-.235-1.177a.764.764,0,0,0-.785-.628H49.41a.826.826,0,0,0-.785.628L48.39,2.9l-1.177.471-.941-.706a.831.831,0,0,0-1.02.078L43.526,4.474a.822.822,0,0,0-.078,1.02l.706.941A7.918,7.918,0,0,0,43.6,7.612l-1.177.235a.764.764,0,0,0-.628.785v2.511a.764.764,0,0,0,.628.785l1.177.235.471,1.177-.706.941a.831.831,0,0,0,.078,1.02l1.8,1.8a.822.822,0,0,0,1.02.078l.941-.706a3.7,3.7,0,0,0,1.177.471l.235,1.177a.744.744,0,0,0,.706.628h1.177a.744.744,0,0,0-.628.706.785.785,0,1,0,1.569,0,.687.687,0,0,0-.628-.706h1.02a.764.764,0,0,0,.785-.628l.235-1.177,1.177-.471.941.706A.831.831,0,0,0,56,17.105l1.8-1.8a.822.822,0,0,0,.078-1.02l-.706-.941a3.7,3.7,0,0,0,.471-1.177l1.177-.157a.764.764,0,0,0,.628-.785V8.71A.55.55,0,0,0,58.9,8ZM50.666,12.79a2.9,2.9,0,1,1,2.9-2.9A2.9,2.9,0,0,1,50.666,12.79Z" transform="translate(-41.8 -1.1)"/></g><g transform="translate(58.939 20.007)"><g transform="translate(2.04 22.988)"><path class="a" d="M52.885,55.8a.785.785,0,1,0,.785.785A.844.844,0,0,0,52.885,55.8Z" transform="translate(-52.1 -55.8)"/></g><g transform="translate(0 23.223)"><circle class="a" cx="0.785" cy="0.785" r="0.785"/></g><g transform="translate(2.04 20.713)"><path class="a" d="M52.885,52.9a.785.785,0,1,0,.785.785A.786.786,0,0,0,52.885,52.9Z" transform="translate(-52.1 -52.9)"/></g><g transform="translate(2.04 2.354)"><path class="a" d="M52.885,29.5a.785.785,0,1,0,.785.785A.786.786,0,0,0,52.885,29.5Z" transform="translate(-52.1 -29.5)"/></g><g transform="translate(2.04 11.533)"><path class="a" d="M52.885,41.2a.785.785,0,1,0,.785.785A.786.786,0,0,0,52.885,41.2Z" transform="translate(-52.1 -41.2)"/></g><g transform="translate(2.04 6.904)"><path class="a" d="M52.885,35.3a.785.785,0,1,0,.785.785A.844.844,0,0,0,52.885,35.3Z" transform="translate(-52.1 -35.3)"/></g><g transform="translate(2.04 18.438)"><path class="a" d="M52.885,50a.785.785,0,1,0,.785.785A.786.786,0,0,0,52.885,50Z" transform="translate(-52.1 -50)"/></g><path class="a" d="M52.885,26.5a.785.785,0,1,0,.785.785A.844.844,0,0,0,52.885,26.5Z" transform="translate(-50.06 -26.5)"/><g transform="translate(2.04 4.629)"><path class="a" d="M52.885,32.4a.785.785,0,1,0,.785.785A.786.786,0,0,0,52.885,32.4Z" transform="translate(-52.1 -32.4)"/></g><g transform="translate(2.04 9.258)"><path class="a" d="M52.885,38.3a.785.785,0,1,0,.785.785A.786.786,0,0,0,52.885,38.3Z" transform="translate(-52.1 -38.3)"/></g><g transform="translate(2.04 13.809)"><path class="a" d="M52.885,44.1a.785.785,0,1,0,.785.785A.786.786,0,0,0,52.885,44.1Z" transform="translate(-52.1 -44.1)"/></g><g transform="translate(2.04 16.162)"><path class="a" d="M52.885,47.1a.785.785,0,1,0,.785.785A.786.786,0,0,0,52.885,47.1Z" transform="translate(-52.1 -47.1)"/></g></g><g transform="translate(17.451 17.731)"><g transform="translate(0 22.988)"><path class="a" d="M13.285,52.9a.785.785,0,1,0,.785.785A.841.841,0,0,0,13.285,52.9Z" transform="translate(-12.5 -52.9)"/></g><g transform="translate(0 18.438)"><path class="a" d="M13.285,47.1a.785.785,0,1,0,.785.785A.841.841,0,0,0,13.285,47.1Z" transform="translate(-12.5 -47.1)"/></g><g transform="translate(0 20.713)"><path class="a" d="M13.285,50a.785.785,0,1,0,.785.785A.841.841,0,0,0,13.285,50Z" transform="translate(-12.5 -50)"/></g><g transform="translate(0 25.263)"><path class="a" d="M13.285,55.8a.785.785,0,1,0,.785.785A.915.915,0,0,0,13.285,55.8Z" transform="translate(-12.5 -55.8)"/></g><g transform="translate(0)"><path class="a" d="M13.285,23.6a.785.785,0,1,0,.785.785A.841.841,0,0,0,13.285,23.6Z" transform="translate(-12.5 -23.6)"/></g><g transform="translate(2.04 25.499)"><path class="a" d="M15.885,57.669a.786.786,0,0,0,.785-.785.741.741,0,0,0-.785-.785.785.785,0,0,0,0,1.569Z" transform="translate(-15.1 -56.1)"/></g><g transform="translate(0 2.275)"><path class="a" d="M13.285,26.5a.785.785,0,1,0,.785.785A.915.915,0,0,0,13.285,26.5Z" transform="translate(-12.5 -26.5)"/></g><g transform="translate(0 6.904)"><path class="a" d="M13.285,32.4a.785.785,0,1,0,.785.785A.841.841,0,0,0,13.285,32.4Z" transform="translate(-12.5 -32.4)"/></g><g transform="translate(0 16.084)"><path class="a" d="M13.285,44.1a.785.785,0,1,0,.785.785A.841.841,0,0,0,13.285,44.1Z" transform="translate(-12.5 -44.1)"/></g><g transform="translate(0 9.18)"><path class="a" d="M13.285,35.3a.785.785,0,1,0,.785.785A.915.915,0,0,0,13.285,35.3Z" transform="translate(-12.5 -35.3)"/></g><g transform="translate(0 4.629)"><path class="a" d="M13.285,29.5a.785.785,0,1,0,.785.785A.841.841,0,0,0,13.285,29.5Z" transform="translate(-12.5 -29.5)"/></g><g transform="translate(0 11.533)"><path class="a" d="M13.285,38.3a.785.785,0,1,0,.785.785A.841.841,0,0,0,13.285,38.3Z" transform="translate(-12.5 -38.3)"/></g><g transform="translate(0 13.809)"><path class="a" d="M13.285,41.2a.785.785,0,1,0,.785.785A.841.841,0,0,0,13.285,41.2Z" transform="translate(-12.5 -41.2)"/></g></g><path class="b" d="M25.922,17.319V1.785A.786.786,0,0,0,25.137,1H2.385a.786.786,0,0,0-.785.785V17.319a.786.786,0,0,0,.785.785H25.137A.844.844,0,0,0,25.922,17.319ZM10.78,12.455a.777.777,0,0,1-1.1,1.1L5.994,10.1a.758.758,0,0,1,0-1.1L9.681,5.551a.777.777,0,0,1,1.1,1.1l-3.06,2.9ZM15.958,4.3l-2.9,10.827a.771.771,0,0,1-1.491-.392L14.467,3.9a.807.807,0,0,1,.941-.549A.852.852,0,0,1,15.958,4.3ZM21.45,10.1l-3.687,3.452a.777.777,0,1,1-1.1-1.1l3.06-2.9-3.06-2.9a.777.777,0,1,1,1.1-1.1L21.45,9A.758.758,0,0,1,21.45,10.1Z" transform="translate(-1.6 -1)"/><g transform="translate(20.795 0.378)"><g transform="translate(9.913 10.033)"><path class="c" d="M223.056,173.106h6.17v5.471h-6.17Z" transform="translate(-217.416 -166.705)"/><ellipse class="c" cx="2.104" cy="1.349" rx="2.104" ry="1.349" transform="translate(13.774 4.077) rotate(-74.991)"/><ellipse class="c" cx="1.349" cy="2.104" rx="1.349" ry="2.104" transform="translate(0 0.699) rotate(-15.009)"/></g><ellipse class="c" cx="6.883" cy="8.742" rx="6.883" ry="8.742" transform="translate(11.756 2.138)"/><path class="d" d="M286.275,30.695c-3.135-1.913-2.92,2.417-2.92,2.417a7.923,7.923,0,0,0,2.96,5.791l.091,2.377a.459.459,0,0,0,.9-.042C287.472,39.851,288.909,32.3,286.275,30.695Z" transform="translate(-261.627 -28.397)"/><path class="d" d="M191.335,15.034s.708,1.888-.944,2.622a17.088,17.088,0,0,1-5.874.865c-1.6.026-2.517,1.337-3.094,2.439-.43.821-.139,3.383-.072,4.272a.463.463,0,0,1-.921.081,28.274,28.274,0,0,1-.358-5.272c.234-1.775,0-5.669,4.794-6.219,1.2-.137,2.144-1.3,2.964-1.307C190.3,12.494,191.236,14.129,191.335,15.034Z" transform="translate(-168.874 -12.514)"/><path class="c" d="M149.757,225.126c.087-4.127-4.527-5.6-4.527-5.6l-6.345-1.867h-4.946l-6.345,1.867s-4.614,1.474-4.527,5.6,0,9.433,0,9.433h26.69S149.67,229.253,149.757,225.126Z" transform="translate(-117.745 -196.665)"/><path class="a" d="M149.481,240.022H122.793s.086-5.306,0-9.431,4.527-5.6,4.527-5.6l4.212-1.233a6.663,6.663,0,0,0,9.223-.013l4.209,1.238s4.637,1.477,4.547,5.607S149.481,240.022,149.481,240.022Z" transform="translate(-117.498 -202.128)"/><path class="e" d="M106.656,273.895H73.328a2.261,2.261,0,0,0-2.244,2.541l2.1,16.8a2.261,2.261,0,0,0,2.244,1.981h29.137a2.261,2.261,0,0,0,2.244-1.981l2.1-16.8A2.261,2.261,0,0,0,106.656,273.895Z" transform="translate(-71.067 -247.146)"/><g transform="translate(0.694 34.699)"><path class="f" d="M221.212,351.585c-2.19,0-3.966,1.189-3.966,2.657s1.776,2.657,3.966,2.657,3.966-1.189,3.966-2.657S223.4,351.585,221.212,351.585Z" transform="translate(-202.981 -351.585)"/><path class="a" d="M113.4,481.71H78.756a.91.91,0,0,0,0,1.819H113.4a.91.91,0,0,0,0-1.819Z" transform="translate(-77.847 -468.394)"/></g></g></svg>