<svg xmlns="http://www.w3.org/2000/svg" width="49.826" height="49.826" viewBox="0 0 49.826 49.826"><defs><style>.a{fill:#568ac8;}.b{fill:#ce8925;}.c{fill:#d89028;}.d{fill:#315f99;}.e{fill:#fadfb2;}.f{fill:#333;}</style></defs><path class="a" d="M176,288.082V270.649a4.982,4.982,0,0,1,4.092-4.9l9.2-1.747h6.643l9.2,1.747a4.983,4.983,0,0,1,4.092,4.9v17.433Z" transform="translate(-159.391 -238.257)"/><path class="a" d="M183.772,285.053a15.639,15.639,0,0,0,14.868-20.538L195.93,264h-6.643l-9.2,1.747a4.983,4.983,0,0,0-4.092,4.9v12.326a15.567,15.567,0,0,0,7.772,2.078Z" transform="translate(-159.391 -238.257)"/><path class="b" d="M26.8,246.948H17.661A1.66,1.66,0,0,1,16,245.287V233.661A1.66,1.66,0,0,1,17.661,232H39.252a1.66,1.66,0,0,1,1.661,1.661v11.626a1.66,1.66,0,0,1-1.661,1.661H30.117" transform="translate(-16 -209.578)"/><path class="c" d="M36.7,232H17.661A1.66,1.66,0,0,0,16,233.661v11.626a1.66,1.66,0,0,0,1.661,1.661H29.525A22.44,22.44,0,0,0,36.7,232Z" transform="translate(-16 -209.578)"/><path class="d" d="M416,283.8V273.12l3.322.631V283.8Z" transform="translate(-374.479 -246.43)"/><path class="e" d="M304,232v2.491a3.322,3.322,0,1,0,6.643,0V232" transform="translate(-274.105 -209.578)"/><path class="e" d="M264,91.322V96.3a7.474,7.474,0,1,0,14.948,0V91.322L277.287,88l-1.329,1a7.474,7.474,0,0,1-8.969,0l-1.329-1Z" transform="translate(-238.257 -80.526)"/><path class="f" d="M249.269,18.591l1.438-1.082a7.546,7.546,0,0,1,7.654-.83l2.317,1.055a5.878,5.878,0,0,1,2.961,7.677l-.955,2.215V26.8l-1.661-3.322-1.329,1a7.474,7.474,0,0,1-8.969,0l-1.329-1L247.737,26.8v.83l-1.425-2.851a4.342,4.342,0,0,1,2.957-6.184Z" transform="translate(-221.994 -16)"/><path class="e" d="M242.491,128h-.83a1.661,1.661,0,0,0,0,3.322h.83" transform="translate(-216.748 -116.374)"/><path class="e" d="M408,128h.83a1.661,1.661,0,0,1,0,3.322H408" transform="translate(-367.309 -116.374)"/><path class="d" d="M224,383.474V376h23.252v7.474" transform="translate(-202.409 -338.631)"/><path class="b" d="M16,448H60.843v4.983H16Z" transform="translate(-16 -403.157)"/><path class="c" d="M16,448H60.843v2.491H16Z" transform="translate(-16 -403.157)"/><path class="c" d="M120,318.948V304h3.322v14.948" transform="translate(-109.204 -274.105)"/><path class="d" d="M224,376v7.474h10.357A15.709,15.709,0,0,0,241.15,376Z" transform="translate(-202.409 -338.631)"/><path class="c" d="M120,313.635a22.574,22.574,0,0,0,3.322-2.726V304H120Z" transform="translate(-109.204 -274.105)"/></svg>