<?xml version="1.0" encoding="utf-8"?>
<!-- Generator: Adobe Illustrator 15.0.0, SVG Export Plug-In . SVG Version: 6.00 Build 0)  -->
<!DOCTYPE svg PUBLIC "-//W3C//DTD SVG 1.1//EN" "http://www.w3.org/Graphics/SVG/1.1/DTD/svg11.dtd">
<svg version="1.1" id="Layer_1" xmlns="http://www.w3.org/2000/svg" xmlns:xlink="http://www.w3.org/1999/xlink" x="0px" y="0px"
	 width="42px" height="42px" viewBox="0 0 42 42" enable-background="new 0 0 42 42" xml:space="preserve">
<g>
	<ellipse fill="#FCD088" cx="9.133" cy="4.967" rx="4.432" ry="4.432"/>
	<path fill="#315F99" d="M20.703,41.384c1.357-0.091,2.385-1.264,2.297-2.622L22.178,26.35c-0.084-1.255-1.087-2.238-2.342-2.299
		l-6.756-0.318c0.081-0.589,0.141-1.147,0.182-1.687h-2.896c-0.878,0-1.657-0.59-1.897-1.435l-1.579-5.584
		c-0.143-0.505-0.081-1.037,0.176-1.497c0.256-0.458,0.678-0.791,1.184-0.934c0.175-0.05,0.356-0.074,0.537-0.074
		c0.877,0,1.656,0.589,1.895,1.433l1.173,4.149h1.318c-0.153-1.208-0.422-2.456-0.815-3.884c-0.825-2.937-3.208-3.988-4.911-3.666
		c-1.702,0.322-2.575,2.624-2.123,4.613c0.381,2.784,1.11,6.788,0.463,10.144c-0.319,2.735,0.474,2.976,2.275,3.102
		c0.069,0.004,0.139,0.009,0.209,0.012c0.071,0.01,0.144,0.019,0.217,0.021l8.919,0.422l0.675,10.22
		c0.086,1.301,1.169,2.3,2.456,2.3C20.592,41.389,20.648,41.388,20.703,41.384z"/>
	<path fill="#568AC8" d="M1.143,12.496c0.771,2.02,1.904,5.603,1.896,9.173c0,1.93-0.325,3.839-1.159,5.514
		c-0.179,0.299-0.808,1.371-0.828,2.76c-0.021,0.952,0.408,2.13,1.52,2.881c1.101,0.758,2.706,1.157,5.119,1.162
		c0.092,0,0.189-0.002,0.284-0.003v0.85H7.664v1.371l-6.897,1.665v1.238c-0.457,0.181-0.78,0.624-0.78,1.145
		c0,0.68,0.551,1.231,1.231,1.231c0.68,0,1.231-0.552,1.231-1.231c0-0.488-0.286-0.909-0.698-1.108v-0.499l6.404-1.546v2.012
		c-0.453,0.183-0.772,0.625-0.772,1.142c0,0.68,0.552,1.231,1.232,1.231s1.231-0.552,1.231-1.231c0-0.517-0.32-0.959-0.772-1.142
		v-2.012l6.403,1.547v0.498c-0.413,0.199-0.697,0.62-0.697,1.108c0,0.68,0.552,1.231,1.231,1.231c0.68,0,1.232-0.552,1.232-1.231
		c0-0.521-0.323-0.965-0.78-1.145l0-1.238l-6.896-1.664v-1.372H9.255v-0.9c1.711-0.107,3.767-0.389,6.254-0.892
		c0.533-0.107,0.878-0.627,0.772-1.159l-0.112-2.271L3.188,29.031c0.036-0.109,0.075-0.214,0.117-0.31
		c0.072-0.174,0.146-0.318,0.2-0.416c0.027-0.048,0.048-0.085,0.062-0.106c0.006-0.011,0.011-0.018,0.012-0.021l0,0l0.055-0.097
		c1.017-2.034,1.374-4.26,1.375-6.412C4.995,15.631,2.234,10.036,2.211,9.968c-0.24-0.489-0.829-0.692-1.318-0.454
		c-0.49,0.239-0.693,0.829-0.453,1.317h0c0,0,0.006,0.015,0.024,0.052c0.043,0.089,0.138,0.293,0.266,0.592 M1.974,40.251
		c0,0.417-0.338,0.755-0.755,0.755c-0.417,0-0.755-0.338-0.755-0.755s0.338-0.756,0.755-0.756
		C1.635,39.495,1.974,39.834,1.974,40.251z M9.371,40.251c0,0.417-0.338,0.755-0.755,0.755c-0.417,0-0.756-0.338-0.756-0.755
		s0.339-0.756,0.756-0.756C9.032,39.495,9.371,39.834,9.371,40.251z M16.013,41.006c-0.417,0-0.755-0.338-0.755-0.755
		s0.338-0.756,0.755-0.756c0.418,0,0.756,0.339,0.756,0.756S16.431,41.006,16.013,41.006z"/>
	<rect x="17.187" y="22.223" fill="#D89028" width="9.458" height="0.886"/>
	<polygon fill="#D89028" points="42.014,19.365 42.014,17.494 23.131,17.494 23.131,19.365 38.697,19.365 38.697,38.872 
		24.412,38.872 24.412,40.744 42.014,40.744 42.014,38.872 40.896,38.872 40.896,19.365 	"/>
	<path fill="#568AC8" d="M25.068,21.401V20.48h-5.39c-0.075,0.351-0.243,0.666-0.475,0.921H25.068z"/>
	<path fill="#315F99" d="M10.302,14.064c-0.237-0.839-1.108-1.325-1.946-1.089c-0.837,0.237-1.325,1.108-1.087,1.946H7.268
		l1.58,5.583c0.192,0.678,0.813,1.146,1.516,1.146h7.386c0.871,0,1.577-0.705,1.577-1.577c0-0.87-0.706-1.576-1.577-1.576h-6.193
		L10.302,14.064z"/>
	<polygon fill="#568AC8" points="32.064,0.673 32.064,13.152 33.771,13.152 33.771,10.164 34.723,10.164 34.723,7.38 36.25,7.38 
		36.25,15.818 33.787,15.818 33.787,16.902 39.896,16.902 39.896,15.818 37.385,15.818 37.385,5.523 36.25,5.523 36.25,6.445 
		34.723,6.445 34.723,3.661 33.771,3.661 33.771,0.673 	"/>
	<path fill="#333333" d="M5.19,2.941c1.078-2.198,3.802-3.032,6.001-1.955c2.198,1.077-2.756,0.867-3.833,3.065
		C6.281,6.25,7.586,8.41,5.387,7.333C4.875,6.551,4.114,5.139,5.19,2.941z"/>
</g>
<path fill="#568AC8" d="M28.711,0.518H17.758c-0.548,0-0.996,0.449-0.996,0.996v10.954c0,0.548,0.447,0.996,0.996,0.996h10.953
	c0.549,0,0.996-0.448,0.996-0.996V1.514C29.707,0.967,29.26,0.518,28.711,0.518z M22.488,10.526l-0.698,0.696l-1.045-1.045
	L19.7,11.223l-0.698-0.696l1.046-1.046l-1.046-1.046L19.7,7.738l1.045,1.047l1.045-1.047l0.698,0.697L21.441,9.48L22.488,10.526z
	 M22.736,5h-1.494v1.494h-0.996V5h-1.494V4.004h1.494V2.51h0.996v1.494h1.494V5z M23.98,10.526l2.838-2.838l0.699,0.697l-2.84,2.837
	L23.98,10.526z M23.98,7.738c0.199-0.199,0.498-0.199,0.697,0c0.199,0.199,0.199,0.498,0,0.697c-0.199,0.2-0.498,0.2-0.697,0
	C23.783,8.236,23.783,7.937,23.98,7.738z M27.467,11.223c-0.199,0.2-0.498,0.2-0.697,0c-0.199-0.198-0.199-0.497,0-0.696
	c0.199-0.199,0.498-0.199,0.697,0C27.666,10.726,27.666,11.024,27.467,11.223z M27.717,5h-3.984V4.004h3.984V5z"/>
</svg>
