<?xml version="1.0" encoding="utf-8"?>
<!-- Generator: Adobe Illustrator 15.0.0, SVG Export Plug-In . SVG Version: 6.00 Build 0)  -->
<!DOCTYPE svg PUBLIC "-//W3C//DTD SVG 1.1//EN" "http://www.w3.org/Graphics/SVG/1.1/DTD/svg11.dtd">
<svg version="1.1" id="Layer_1" xmlns="http://www.w3.org/2000/svg" xmlns:xlink="http://www.w3.org/1999/xlink" x="0px" y="0px"
	 width="42px" height="42px" viewBox="0 0 42 42" enable-background="new 0 0 42 42" xml:space="preserve">
<g>
	<path fill="#D89028" d="M29.335,35.625v4.033h1.394v-9.939h1.304v-2.121h-1.461c0.041,0.367,0.064,0.752,0.065,1.158
		C30.629,30.619,30.21,32.838,29.335,35.625z"/>
	<path fill="#D89028" d="M25.56,27.598h-4.794c-0.068,0.211-0.142,0.576-0.141,1.158c-0.001,0.238,0.011,0.555,0.056,0.963h4.966
		c0.043-0.408,0.057-0.723,0.055-0.961C25.701,28.178,25.629,27.814,25.56,27.598z"/>
	<path fill="#D89028" d="M15.689,28.758c0-0.406,0.023-0.793,0.064-1.16h-2.026v2.121h1.303v9.939h1.395v-6.002
		C15.934,31.764,15.694,30.158,15.689,28.758z"/>
	<rect x="1.558" y="24.99" fill="#D89028" width="1.456" height="14.607"/>
	<rect x="38.988" y="24.99" fill="#D89028" width="1.455" height="14.607"/>
	<path d="M20.751,20.611l-0.281-0.563c-0.225,0.262-0.522,0.459-0.86,0.563H20.751z"/>
	<path fill="#315F99" d="M25.775,27.18c0.004,0.008,0.008,0.012,0.012,0.02c0.123,0.221,0.278,0.689,0.278,1.557
		c0.009,1.459-0.472,3.951-1.806,7.613c-0.396,1.092,0.169,2.297,1.261,2.693c0.236,0.086,0.479,0.125,0.717,0.125
		c0.861,0,1.668-0.529,1.978-1.385l0,0c1.415-3.922,2.049-6.762,2.058-9.047c-0.001-1.203-0.186-2.275-0.617-3.223
		c-0.085-0.188-0.182-0.369-0.286-0.543h-12.41c-0.039,0.066-0.081,0.131-0.118,0.199c-0.553,1.02-0.789,2.215-0.79,3.566
		c0.009,2.285,0.644,5.125,2.057,9.047c0.396,1.092,1.603,1.656,2.695,1.26c1.093-0.396,1.657-1.602,1.261-2.693
		c-1.333-3.662-1.814-6.154-1.805-7.613c-0.001-0.77,0.123-1.229,0.236-1.473c0.018-0.039,0.036-0.072,0.053-0.102h0.477h4.272
		h0.478V27.18z"/>
	<ellipse fill="#FCD088" cx="23.162" cy="6.625" rx="4.091" ry="4.091"/>
	<path fill="#333333" d="M19.178,5.697c0.513-2.2,2.712-3.569,4.912-3.056c2.2,0.512,3.567,2.711,3.056,4.912
		c-0.512,2.2,0.108-2.938-3.403-3.783C20.181,3.133,18.666,7.897,19.178,5.697z"/>
	<path fill="#568AC8" d="M28.089,10.377c-0.123,0.165-0.462-0.315-0.848-0.396c-0.463-0.097-1.458,1.579-1.401,1.815
		c0.058,0.236,1.5,0.823,2.165,0.348c0.338-0.242,0.785-0.965,1.174-1.707c0.082,0.11,0.164,0.219,0.241,0.324
		c0.521,0.714,0.896,1.303,1.144,1.765c0,0.001,0,0.001,0,0.001c0.125,0.226,0.214,0.423,0.276,0.583
		c-0.528-0.058-1.327-0.269-1.974-0.501c-0.212-0.074-0.411-0.148-0.589-0.218c-0.021,0.017-0.042,0.034-0.062,0.048
		c-0.478,0.342-1.14,0.266-1.576,0.157c-0.198,0.638-0.464,1.709-0.463,2.801c0.007,1.392,0.413,2.766,1.903,3.439v-3.423
		c0.899,0.301,1.957,0.61,3.042,0.622c0.533-0.008,1.129-0.065,1.747-0.466c0.303-0.2,0.587-0.506,0.764-0.868
		c0.181-0.36,0.251-0.751,0.25-1.114c-0.012-0.819-0.292-1.552-0.753-2.43c-0.001-0.002-0.001-0.004-0.002-0.005h-0.001
		c0-0.001-0.002-0.002-0.003-0.004c-0.522-0.971-1.316-2.118-2.471-3.545c-0.049-0.061-0.094-0.118-0.144-0.179
		c-0.047-0.057-0.098-0.108-0.149-0.156c0.208-0.904,0.367-1.908,0.248-2.36c-0.209-0.789-1.695-1.256-1.89-1.11
		s-0.495,2.071-0.075,2.292c0.348,0.184,0.914,0.029,0.903,0.234c-0.003,0.094-0.037,0.307-0.088,0.569
		c-0.126-0.006-0.252,0.002-0.377,0.029c-0.22,0.046-0.433,0.144-0.619,0.296c-0.623,0.508-0.714,1.425-0.206,2.047
		c0.009,0.011,0.015,0.02,0.024,0.029c0.086,0.107,0.167,0.208,0.249,0.311C28.343,9.965,28.166,10.274,28.089,10.377z"/>
	<path fill="#568AC8" d="M28.205,19.283c0.582,0.213,1.286,0.332,2.137,0.332c0.643,0,1.372-0.071,2.194-0.218l-0.062,0.204
		c0,0.495,0.326,0.895,0.729,0.895h5.485c0.401,0,0.728-0.4,0.728-0.895l-0.546-1.828c0-0.577-5.849-0.577-5.849,0l-0.388,1.296
		l-0.011-0.056c-0.868,0.164-1.625,0.238-2.281,0.238c-0.817,0-1.479-0.115-2.012-0.311v0h0.001L28.205,19.283z"/>
	<rect x="0.285" y="21.778" fill="#D89028" width="41.431" height="2.667"/>
	<rect x="1.74" y="20.459" fill="#568AC8" width="9.365" height="0.727"/>
	<rect x="1.74" y="19.196" fill="#568AC8" width="9.365" height="0.727"/>
	<rect x="1.74" y="17.932" fill="#568AC8" width="9.365" height="0.728"/>
	<rect x="1.74" y="16.667" fill="#568AC8" width="9.365" height="0.728"/>
	<rect x="1.74" y="15.404" fill="#568AC8" width="9.365" height="0.728"/>
	<rect x="1.74" y="14.141" fill="#568AC8" width="9.365" height="0.728"/>
	<path fill="#315F99" d="M16.056,19.735c0.818,0.336,1.787,0.514,2.954,0.556c0.018,0.001,0.035,0.001,0.052,0.001
		c0.78,0,1.426-0.618,1.453-1.404c0.028-0.803-0.601-1.477-1.403-1.505c-1.227-0.038-1.958-0.295-2.251-0.492
		c-0.151-0.098-0.197-0.166-0.214-0.194c-0.015-0.03-0.015-0.028-0.018-0.066c0-0.009,0.001-0.024,0.004-0.04
		c0.007-0.064,0.04-0.18,0.137-0.335c0.175-0.289,0.564-0.666,1.11-0.942c0.115-0.058,0.238-0.112,0.365-0.162v1.756
		c0.2,0.029,0.429,0.053,0.69,0.066l-0.492-0.984l0.698-0.349l0.775,1.551c0.185,0.097,0.355,0.223,0.501,0.38
		c0.337,0.362,0.515,0.834,0.497,1.329c-0.003,0.082-0.013,0.16-0.026,0.238l0.61,1.219l-0.503,0.251h3.461v0.622h3.624V19.23
		c-1.776-0.714-2.275-2.34-2.268-3.833c0.001-1.148,0.276-2.247,0.479-2.906c-0.008-0.003-0.018-0.006-0.025-0.01
		c-0.588-0.218-0.724-0.435-0.764-0.549h-5.853c-0.082,0-0.163,0.008-0.241,0.022c-1.458,0.091-2.75,0.588-3.746,1.319
		c-0.551,0.407-1.017,0.888-1.365,1.446c-0.345,0.555-0.578,1.202-0.579,1.911c0,0.067,0.002,0.136,0.006,0.204
		c0.03,0.456,0.166,0.921,0.409,1.333C14.555,18.885,15.243,19.403,16.056,19.735z"/>
</g>
</svg>
