<?xml version="1.0" encoding="utf-8"?>
<!-- Generator: Adobe Illustrator 15.0.0, SVG Export Plug-In . SVG Version: 6.00 Build 0)  -->
<!DOCTYPE svg PUBLIC "-//W3C//DTD SVG 1.1//EN" "http://www.w3.org/Graphics/SVG/1.1/DTD/svg11.dtd">
<svg version="1.1" id="Layer_1" xmlns="http://www.w3.org/2000/svg" xmlns:xlink="http://www.w3.org/1999/xlink" x="0px" y="0px"
	 width="42px" height="42px" viewBox="0 0 42 42" enable-background="new 0 0 42 42" xml:space="preserve">
<path fill="#315F99" d="M16.245,22.225v1.354l-1.031,15.938c-0.078,1.191,0.826,2.219,2.016,2.295
	c1.191,0.078,2.22-0.824,2.297-2.018l0.896-13.842h1.099l0.896,13.842c0.077,1.193,1.106,2.096,2.298,2.018
	c1.19-0.076,2.094-1.104,2.017-2.295l-1.032-15.939v-1.34c-0.855,0.168-3.032,0.559-4.728,0.561
	C19.238,22.795,17.034,22.385,16.245,22.225z"/>
<path fill="#315F99" d="M13.304,25.906v0.902h-0.823v7.109h2.535v-7.109h-0.824v-0.914c0.575-0.201,0.971-0.764,0.934-1.4
	c-0.068-1.162-0.1-2.221-0.099-3.185c-0.006-4.234,0.611-6.612,1.217-7.854v8.069c0.287,0.058,0.827,0.161,1.487,0.265
	c0.984,0.156,2.229,0.309,3.241,0.309c1.012,0,2.257-0.153,3.241-0.309c0.66-0.104,1.2-0.207,1.487-0.264v-8.062
	c0.104,0.212,0.208,0.456,0.312,0.741c0.492,1.366,0.906,3.607,0.904,7.104c0,0.965-0.03,2.024-0.098,3.186
	c-0.045,0.771,0.543,1.432,1.314,1.479c0.027,0,0.055,0.002,0.083,0.002c0.735,0,1.352-0.574,1.395-1.318
	c0.07-1.211,0.104-2.324,0.104-3.347c-0.007-5.276-0.85-8.197-1.999-9.953c-0.574-0.872-1.246-1.431-1.867-1.74
	c-0.548-0.277-1.037-0.357-1.356-0.372c-0.048-0.004-0.095-0.008-0.143-0.008h-0.911c-0.167,1.214-1.206,2.15-2.465,2.15
	c-1.26,0-2.298-0.936-2.466-2.15h-0.912c-0.047,0-0.094,0.003-0.141,0.008c-0.319,0.014-0.81,0.094-1.359,0.371
	c-0.941,0.467-1.955,1.486-2.663,3.294c-0.718,1.814-1.201,4.438-1.203,8.399c0,1.023,0.033,2.136,0.104,3.349
	C12.37,25.252,12.771,25.736,13.304,25.906z"/>
<path fill="#D89028" d="M13.307,25.906v0.902h-0.822v7.109h2.535v-7.109h-0.824v-0.914"/>
<path fill="#FCD088" d="M23.104,7.611c1.084-0.7,1.802-1.917,1.802-3.304c0-2.172-1.761-3.934-3.933-3.934S17.04,2.135,17.04,4.308
	c0,1.386,0.717,2.604,1.8,3.304c0.615,0.397,1.347,0.629,2.133,0.629C21.759,8.241,22.49,8.009,23.104,7.611z"/>
<path fill="#333333" d="M17.078,3.251c0.497-2.133,2.628-3.459,4.761-2.962c2.133,0.496,3.459,2.628,2.963,4.761
	c-0.497,2.133,0.104-2.848-3.3-3.666C18.05,0.766,16.582,5.384,17.078,3.251z"/>
<g>
	<g>
		<path fill="#568AC8" d="M21.881,11.26l0.717,7.725h0.001c0.005,0.053-0.017,0.104-0.055,0.136l-1.445,1.441l0,0
			c-0.063,0.062-0.164,0.062-0.226,0c-0.002-0.003-0.004-0.006-0.006-0.007l-1.471-1.442l-0.001,0.001
			c-0.036-0.036-0.052-0.085-0.046-0.133l0.661-7.72H21.881L21.881,11.26z"/>
		<path fill="#568AC8" d="M21.893,11.1l0.879-1.477c0.017-0.025,0.027-0.056,0.027-0.089c0-0.088-0.07-0.159-0.158-0.159h-3.332
			c-0.027,0-0.055,0.005-0.081,0.02c-0.076,0.043-0.104,0.14-0.061,0.217h0.001l0.833,1.489H21.893L21.893,11.1z"/>
	</g>
</g>
</svg>
