<?xml version="1.0" encoding="utf-8"?>
<!-- Generator: Adobe Illustrator 15.0.0, SVG Export Plug-In . SVG Version: 6.00 Build 0)  -->
<!DOCTYPE svg PUBLIC "-//W3C//DTD SVG 1.1//EN" "http://www.w3.org/Graphics/SVG/1.1/DTD/svg11.dtd">
<svg version="1.1" id="Layer_1" xmlns="http://www.w3.org/2000/svg" xmlns:xlink="http://www.w3.org/1999/xlink" x="0px" y="0px"
	 width="42px" height="42px" viewBox="0 0 42 42" enable-background="new 0 0 42 42" xml:space="preserve">
<g>
	<g>
		<circle fill="#FCD088" cx="11.729" cy="7.418" r="2.842"/>
		<polygon fill="#568AC8" points="10.3,13.497 11.729,12.703 13.16,13.497 13.16,11.793 11.802,12.602 10.3,11.793 		"/>
		<path fill="#315F99" d="M20.75,20.132c-0.164-2.868-1.02-5.055-2.532-6.506c-1.789-1.719-3.811-1.754-4.165-1.745l-2.039,8.251
			h-0.501L9.474,11.88c-0.354-0.009-2.385,0.026-4.165,1.745c-1.513,1.452-2.368,3.638-2.532,6.506H0.264v3.181h2.592v14.964h36.289
			V23.313h2.592v-3.181H20.75L20.75,20.132z M15.443,15.57c0.105,0.06,0.216,0.138,0.33,0.225c0.984,0.804,1.572,2.298,1.72,4.337
			h-2.049V15.57z M7.754,15.794c0.112-0.086,0.225-0.165,0.328-0.225v4.562H6.035C6.182,18.093,6.77,16.598,7.754,15.794z"/>
		<path fill="#D89028" d="M31.139,18.645h-1.66v0.674h5.023v-0.674H32.84v-0.947h4.227v-7.533H26.914v7.533h4.225V18.645
			L31.139,18.645z M27.777,16.835V11.03h8.424v5.805H27.777L27.777,16.835z"/>
	</g>
	<path fill="#568AC8" d="M2.777,20.132H0.263v3.181h2.592v14.964h36.29V23.313h2.592v-3.181H20.75l0,0"/>
	<line fill="#568AC8" x1="12.014" y1="20.132" x2="11.513" y2="20.132"/>
	<path fill="#333333" d="M9.028,6.649c0.353-1.516,1.868-2.458,3.383-2.105c1.516,0.354,2.458,1.868,2.105,3.383
		c-0.354,1.516,0.074-2.023-2.345-2.605C9.719,4.884,8.675,8.165,9.028,6.649z"/>
</g>
</svg>
