<?xml version="1.0" encoding="utf-8"?>
<!-- Generator: Adobe Illustrator 15.0.0, SVG Export Plug-In . SVG Version: 6.00 Build 0)  -->
<!DOCTYPE svg PUBLIC "-//W3C//DTD SVG 1.1//EN" "http://www.w3.org/Graphics/SVG/1.1/DTD/svg11.dtd">
<svg version="1.1" id="Layer_1" xmlns="http://www.w3.org/2000/svg" xmlns:xlink="http://www.w3.org/1999/xlink" x="0px" y="0px"
	 width="42px" height="42px" viewBox="0 0 42 42" enable-background="new 0 0 42 42" xml:space="preserve">
<g>
	<path fill="#315F99" d="M19.771,41.821c1.419,0,2.569-1.148,2.569-2.567V18.9l1.146-5.291c0.553,0.417,1.193,0.869,1.912,1.324
		c2.521,1.586,5.99,3.245,9.902,3.257c0.215,0,0.428-0.006,0.639-0.016c0.916-0.042,1.627-0.82,1.584-1.736
		c-0.045-0.917-0.82-1.625-1.736-1.583c-0.166,0.008-0.328,0.012-0.486,0.012c-2.922,0.013-5.906-1.329-8.125-2.742
		c-1.111-0.702-2.027-1.409-2.66-1.935c-0.314-0.264-0.559-0.481-0.721-0.628c-0.082-0.074-0.141-0.131-0.18-0.167
		c-0.02-0.02-0.033-0.032-0.041-0.041c-0.008-0.007-0.008-0.007-0.008-0.007c-0.109-0.108-0.232-0.197-0.361-0.27
		c-0.008-0.004-0.016-0.009-0.023-0.014c-0.01-0.005-0.018-0.01-0.029-0.016c-0.328-0.187-0.719-0.297-1.139-0.297h-0.508
		c-0.712,1.953-2.587,3.351-4.784,3.351c-2.195,0-4.07-1.398-4.782-3.351h-0.508c-0.28,0-0.546,0.05-0.792,0.138
		c-0.015,0.003-0.029,0.006-0.043,0.01L10.596,8.9c-0.047,0.016-1.332,0.383-2.705,1.027c-0.69,0.328-1.405,0.714-2.047,1.244
		c-0.321,0.268-0.629,0.576-0.893,0.982c-0.07,0.11-0.137,0.229-0.198,0.357c-0.164,0.341-0.278,0.745-0.278,1.19
		c-0.001,0.274,0.045,0.558,0.132,0.823l0,0h0c0.206,0.625,0.604,1.11,1.061,1.495c0.695,0.578,1.567,1.008,2.743,1.43
		c1.176,0.417,2.663,0.808,4.561,1.185c0.109,0.021,0.218,0.031,0.325,0.031c0.776,0,1.471-0.547,1.627-1.338
		c0.178-0.9-0.407-1.774-1.307-1.952c-2.386-0.472-3.989-0.962-4.921-1.386c-0.272-0.122-0.483-0.238-0.639-0.334
		c0.085-0.067,0.186-0.138,0.298-0.208c0.026-0.017,0.055-0.034,0.083-0.051C8.82,13.16,9.3,12.926,9.767,12.727l0.289,1.332
		c0.826,0.27,1.995,0.582,3.642,0.907c0.544,0.108,1.014,0.422,1.323,0.882c0.308,0.461,0.419,1.015,0.312,1.559
		c-0.193,0.971-1.049,1.674-2.036,1.674c-0.135,0-0.271-0.014-0.406-0.04c-0.66-0.131-1.271-0.265-1.843-0.4l0.057,0.26v20.354
		c0,1.419,1.15,2.567,2.567,2.567c1.419,0,2.568-1.148,2.568-2.567V20.506h0.962v18.748C17.203,40.673,18.353,41.821,19.771,41.821z
		 M16.722,13.124c0.401,0,0.728,0.326,0.728,0.727c0,0.401-0.327,0.727-0.728,0.727c-0.402,0-0.727-0.326-0.727-0.727
		C15.996,13.449,16.32,13.124,16.722,13.124z M16.722,17.433c-0.402,0-0.727-0.325-0.727-0.727c0-0.401,0.324-0.728,0.727-0.728
		c0.401,0,0.728,0.326,0.728,0.728C17.45,17.108,17.123,17.433,16.722,17.433z"/>
	<path fill="#FCD088" d="M16.722,11.688c2.582,0,4.673-2.093,4.673-4.673c0-0.571-0.103-1.117-0.29-1.623
		c-0.576,0.322-2.425,1.259-4.383,1.259c-1.958,0-3.806-0.938-4.383-1.259c-0.187,0.506-0.29,1.052-0.29,1.623
		C12.049,9.595,14.141,11.688,16.722,11.688z"/>
	<path fill="#315F99" d="M12.707,5.127c0,0,1.73,1.004,4.015,1.004c2.285,0,4.015-1.004,4.015-1.004V1.532
		c-0.663,0.364-2.211,0.619-4.015,0.619c-1.803,0-3.351-0.255-4.015-0.619V5.127z"/>
	<ellipse fill="#568AC8" cx="16.722" cy="1.009" rx="4.067" ry="0.831"/>
</g>
</svg>
