<?xml version="1.0" encoding="utf-8"?>
<!-- Generator: Adobe Illustrator 15.0.0, SVG Export Plug-In . SVG Version: 6.00 Build 0)  -->
<!DOCTYPE svg PUBLIC "-//W3C//DTD SVG 1.1//EN" "http://www.w3.org/Graphics/SVG/1.1/DTD/svg11.dtd">
<svg version="1.1" id="Layer_1" xmlns="http://www.w3.org/2000/svg" xmlns:xlink="http://www.w3.org/1999/xlink" x="0px" y="0px"
	 width="42px" height="42px" viewBox="0 0 42 42" enable-background="new 0 0 42 42" xml:space="preserve">
<g>
	<path fill="#315F99" d="M30.688,23.096l-1.244-3.63c-0.039-0.113-0.103-0.214-0.183-0.301c-0.056,0.837-0.732,1.522-1.592,1.566
		c-0.212,0.01-0.421,0.017-0.621,0.017h-0.019c-0.572,0-1.113-0.043-1.63-0.119c-0.003,0.105,0.015,0.212,0.054,0.316
		c0.164,0.435,0.648,0.653,1.082,0.49l0,0l1.6-0.604l3.791,11.057c0.657-0.719,1.485-1.262,2.432-1.585
		c0.609-0.205,1.241-0.31,1.878-0.31c2.03,0,3.874,1.048,4.931,2.707c0.629-0.031,0.792-0.4-0.221-1.716
		c-1.629-2.122-3.895-2.532-5.487-2.513c-0.101-0.271-0.203-0.55-0.312-0.849C34.171,24.925,31.978,23.639,30.688,23.096z"/>
	<path fill="#FCD088" d="M23.07,6.446c0,0.011,0,0.022,0,0.036c0.043,0.813,0.229,1.379,0.23,1.941
		c0.001,0.29-0.055,0.579-0.213,0.872c-0.015,0.029-0.04,0.053-0.069,0.068c-0.462,0.247-0.958,0.325-1.465,0.325
		c-0.441-0.001-0.892-0.058-1.347-0.118c-0.425-0.055-0.8-0.143-1.134-0.262c0.514,0.665,1.25,1.164,2.133,1.369
		c2.033,0.474,4.066-0.792,4.54-2.825c0.209-0.9,0.078-1.799-0.309-2.563c-0.677,0.083-1.588,0.251-2.048,0.606
		C23.178,6.057,23.072,6.226,23.07,6.446z"/>
	<path fill="#315F99" d="M17.065,14.363l-0.001-0.002l-0.007-0.016c-0.186-0.409-0.202-0.865-0.043-1.286
		c0.157-0.42,0.47-0.754,0.877-0.939c0.221-0.101,0.455-0.151,0.696-0.151c0.657,0,1.258,0.387,1.53,0.985l0.007,0.016
		c0.013,0.025,0.033,0.066,0.063,0.121c0.058,0.11,0.158,0.286,0.294,0.5c0.16,0.25,0.392,0.583,0.694,0.945
		c0.303-1.589-0.335-3.341-1.668-3.672c-1.435-0.358-3.515,0.421-4.361,2.882c-1.144,3.391-1.389,5.598-0.954,9.333
		c0.42,2.162,1.689,2.772,2.968,2.922c0.005,0,0.012,0.002,0.017,0.004l6.375,0.989l2.386,6.053
		c0.325,0.827,1.117,1.331,1.955,1.331c0.257,0,0.518-0.047,0.771-0.148c1.08-0.425,1.609-1.646,1.184-2.725l-2.83-7.171
		c-0.273-0.694-0.896-1.192-1.63-1.306l-5.282-0.821c-0.028-1.239,0.108-2.522,0.304-3.745c-0.387-0.304-0.728-0.613-1.026-0.91
		C17.964,16.138,17.25,14.754,17.065,14.363z"/>
	<path fill="#568AC8" d="M27.029,20.411c0.007,0,0.012,0,0.019,0c0.2,0,0.402-0.005,0.604-0.016
		c0.742-0.038,1.313-0.669,1.274-1.411c-0.038-0.741-0.671-1.312-1.411-1.274c-0.161,0.008-0.316,0.012-0.468,0.012
		c-2.576-0.005-4.325-1.134-5.533-2.319c-0.596-0.59-1.034-1.189-1.317-1.632c-0.142-0.221-0.244-0.402-0.308-0.522
		c-0.032-0.06-0.055-0.105-0.068-0.132c-0.005-0.011-0.01-0.019-0.012-0.024l0,0c-0.308-0.676-1.104-0.975-1.78-0.667
		c-0.677,0.307-0.975,1.104-0.667,1.779c0.044,0.093,0.721,1.577,2.259,3.107C21.143,18.835,23.618,20.411,27.029,20.411z"/>
	<path fill="#D89028" d="M12.737,24.99V14.525c0-0.496-0.401-0.897-0.896-0.897H1.225c-0.495,0-0.897,0.401-0.897,0.897V24.99
		c0,0.495,0.402,0.897,0.897,0.897h10.616C12.335,25.888,12.737,25.485,12.737,24.99z"/>
	<path fill="#568AC8" d="M16.085,34.234c-0.889-2.618-3.731-4.021-6.351-3.133c-2.619,0.886-4.022,3.73-3.134,6.35
		c0.889,2.618,3.731,4.023,6.35,3.135C15.57,39.698,16.972,36.854,16.085,34.234z M11.977,37.716
		c-1.035,0.351-2.158-0.202-2.508-1.237c-0.351-1.034,0.204-2.157,1.238-2.509c1.035-0.351,2.158,0.204,2.508,1.237
		C13.566,36.243,13.012,37.366,11.977,37.716z"/>
	<path fill="#568AC8" d="M33.635,22.813c1.415,0,1.415-5.125,0-5.125c-1.416,0-2.563,1.147-2.563,2.563
		C31.071,21.666,32.219,22.813,33.635,22.813z"/>
	<path fill="#315F99" d="M30.453,34.963H19.736c-0.926-1.868-1.245-3.778-1.351-5.019c0.275-0.082,0.477-0.337,0.477-0.639v-1.85
		c0-0.372-0.301-0.672-0.672-0.672H4.492c-0.371,0-0.672,0.3-0.672,0.672v1.85c0,0.371,0.301,0.672,0.672,0.672h0.074
		c-0.729,1.792-1.857,4.896-1.857,7.002c0,0,1.143,0,2.898,0c-0.252-1.257-0.085-2.555,0.491-3.725
		c0.692-1.399,1.887-2.449,3.367-2.951c0.608-0.205,1.24-0.31,1.878-0.31c2.506,0,4.732,1.596,5.537,3.972
		c0.341,1.007,0.391,2.042,0.195,3.014c0.403,0,0.797,0,1.18,0c1.014,0,1.955,0,2.774,0h9.472
		C30.366,36.313,30.35,35.631,30.453,34.963z"/>
	<path fill="#568AC8" d="M34.628,31.102c-2.62,0.886-4.022,3.73-3.136,6.35c0.89,2.618,3.731,4.023,6.352,3.135
		c2.618-0.888,4.021-3.732,3.134-6.352C40.089,31.616,37.246,30.213,34.628,31.102z M36.871,37.716
		c-1.036,0.351-2.159-0.202-2.51-1.237c-0.351-1.034,0.205-2.157,1.239-2.509c1.034-0.351,2.158,0.204,2.508,1.237
		C38.46,36.243,37.905,37.366,36.871,37.716z"/>
	<path fill="#315F99" d="M25.854,4.907c-0.073-0.511-0.233-0.996-0.47-1.44c-0.644-1.205-1.835-2.091-3.291-2.282
		c-0.192-0.025-0.384-0.037-0.573-0.037c0,0,0,0-0.001,0c-2.16,0-4.039,1.603-4.326,3.804c-0.025,0.191-0.037,0.381-0.037,0.569
		c0,0.26,0.022,0.516,0.067,0.765c0.166,0.932,0.447,1.601,0.911,2.067c0.464,0.467,1.129,0.753,2.114,0.883
		c0.455,0.06,0.893,0.115,1.304,0.114c0.456,0,0.875-0.065,1.261-0.261c0.111-0.225,0.15-0.433,0.15-0.667
		c0.003-0.48-0.183-1.069-0.23-1.922c-0.001-0.019-0.002-0.037-0.002-0.055c-0.001-0.346,0.19-0.624,0.451-0.818
		c0.265-0.197,0.602-0.333,0.96-0.435C24.761,5.017,25.438,4.946,25.854,4.907z"/>
</g>
</svg>
