<?xml version="1.0" encoding="utf-8"?>
<!-- Generator: Adobe Illustrator 15.0.0, SVG Export Plug-In . SVG Version: 6.00 Build 0)  -->
<!DOCTYPE svg PUBLIC "-//W3C//DTD SVG 1.1//EN" "http://www.w3.org/Graphics/SVG/1.1/DTD/svg11.dtd">
<svg version="1.1" id="Layer_1" xmlns="http://www.w3.org/2000/svg" xmlns:xlink="http://www.w3.org/1999/xlink" x="0px" y="0px"
	 width="42px" height="42px" viewBox="0 0 42 42" enable-background="new 0 0 42 42" xml:space="preserve">
<g>
	<path fill="#568AC8" d="M22.404,23.158v-3.765h-2.693c0.218,1.092,0.349,2.346,0.395,3.765H22.404z"/>
	<path fill="#D89028" d="M22.682,30.114h-0.277v-6.701h-2.291c0.007,0.281,0.012,0.568,0.012,0.864c0,0.846-0.028,1.761-0.083,2.716
		c-0.059,1.031-0.914,1.838-1.946,1.838c-0.039,0-0.08-0.002-0.119-0.006c-0.393-0.022-0.753-0.163-1.048-0.385v2.342h24.989v-0.779
		h-2.019V19.394H22.682V30.114z M34.997,28.277h-8.069v-5.724h8.069V28.277z M28.265,21.417c0.198,0,0.358,0.16,0.358,0.359
		c0,0.198-0.16,0.358-0.358,0.358c-0.197,0-0.357-0.161-0.357-0.358C27.907,21.576,28.067,21.417,28.265,21.417z M27.225,21.417
		c0.197,0,0.358,0.16,0.358,0.359c0,0.198-0.161,0.358-0.358,0.358c-0.199,0-0.359-0.161-0.359-0.358
		C26.865,21.576,27.025,21.417,27.225,21.417z"/>
	<path fill="#568AC8" d="M23.896,18.881v-0.603h-4.453c0.056,0.194,0.108,0.396,0.157,0.603H23.896z"/>
	<rect x="27.509" y="18.278" fill="#568AC8" width="6.683" height="0.603"/>
	<path fill="#568AC8" d="M19.328,17.902h2.87l0.717-2.613l-0.403-0.11l0,0L22.2,16.313h-3.292l-0.31-1.134l-0.402,0.11l0.143,0.522
		c0.02,0.028,0.039,0.054,0.058,0.082C18.768,16.461,19.078,17.13,19.328,17.902z"/>
	<path fill="#315F99" d="M8.563,31.092v7.815c0,0.951,0.77,1.721,1.721,1.721s1.722-0.77,1.722-1.721v-7.043
		C10.6,31.809,9.25,31.357,8.563,31.092z"/>
	<path fill="#315F99" d="M14.796,18.099l1.297,6.279v-1.75V18.03c0.083,0.169,0.167,0.364,0.248,0.59
		c0.393,1.088,0.723,2.872,0.722,5.658c0,0.768-0.024,1.61-0.079,2.538c-0.036,0.612,0.434,1.14,1.047,1.177
		c0.021,0,0.044,0,0.065,0c0.586,0,1.077-0.456,1.111-1.048c0.057-0.965,0.083-1.852,0.083-2.667
		c-0.005-4.202-0.677-6.528-1.592-7.926c-0.457-0.694-0.992-1.139-1.485-1.387c-0.36-0.181-0.686-0.255-0.932-0.282L14.796,18.099z"
		/>
	<path fill="#315F99" d="M12.651,31.86v7.047c0,0.951,0.771,1.721,1.721,1.721c0.951,0,1.721-0.77,1.721-1.721v-7.846
		C15.446,31.318,14.084,31.789,12.651,31.86z"/>
	<polygon fill="#315F99" points="10.03,14.667 10.49,17.914 12.291,17.914 14.167,17.914 14.627,14.667 14.151,14.667 
		14.365,13.831 14.382,13.767 14.186,13.831 12.631,14.34 12.631,15.519 12.075,15.519 12.075,14.355 10.471,13.831 10.275,13.767 
		10.291,13.831 10.506,14.667 	"/>
	<path fill="#FCD088" d="M12.838,13.831c1.487-0.243,2.623-1.533,2.623-3.09c0-0.514-0.124-0.998-0.343-1.425
		c-0.465-0.159-1.728-0.558-2.789-0.558c-1.061,0-2.324,0.398-2.79,0.558c-0.219,0.428-0.343,0.913-0.343,1.425
		c0,1.557,1.136,2.847,2.623,3.09c0.166,0.027,0.336,0.042,0.51,0.042C12.502,13.873,12.672,13.858,12.838,13.831z"/>
	<path fill="#315F99" d="M12.329,8.34c1.166,0,2.577,0.481,2.904,0.599c0.045,0.016,0.07,0.026,0.07,0.026s-0.101-0.506-0.125-1.061
		c-0.024-0.574,0.035-1.201,0.375-1.371c0.423-0.212,1.446-0.707,1.62-1.421c0.095-0.391-0.065-0.845-0.713-1.356
		c-0.16,0.165-0.48,0.422-1.02,0.58c0.15-0.15,0.457-0.55,0.671-0.836c-0.625-0.445-1.123-0.772-1.547-1.011
		c-0.132,0.199-0.36,0.464-0.743,0.706c0.094-0.169,0.257-0.573,0.382-0.896c-0.699-0.342-1.214-0.423-1.875-0.423
		c-0.662,0-1.176,0.081-1.875,0.422c0.125,0.324,0.288,0.728,0.381,0.896c-0.383-0.242-0.611-0.506-0.743-0.706
		C9.667,2.728,9.17,3.054,8.544,3.5c0.215,0.286,0.522,0.686,0.672,0.836c-0.539-0.158-0.86-0.416-1.021-0.58
		C7.549,4.267,7.39,4.722,7.484,5.112C7.657,5.826,8.68,6.321,9.103,6.533c0.341,0.17,0.4,0.796,0.375,1.371
		C9.456,8.458,9.354,8.964,9.354,8.964s0.025-0.01,0.07-0.026C9.75,8.821,11.162,8.34,12.329,8.34z"/>
	<path fill="#568AC8" d="M5.058,32.875l-1.087-0.646l2.064-3.472l0.456-0.766c0.023,0.002,0.046,0.002,0.069,0.002
		c0.023,0,0.044,0,0.067,0c0.613-0.037,1.082-0.564,1.046-1.179c-0.015-0.257-0.027-0.506-0.038-0.751l0.782-1.315l-0.638-0.379
		l-0.182,0.305c-0.001-0.134-0.003-0.266-0.003-0.396c-0.005-3.372,0.487-5.266,0.97-6.254v4.604v1.382l1.258-6.096h0.012
		l-0.458-3.231c-0.246,0.028-0.571,0.103-0.931,0.283c-0.749,0.371-1.556,1.184-2.121,2.624c-0.572,1.445-0.956,3.534-0.958,6.689
		c0,0.815,0.027,1.702,0.083,2.667c0.018,0.297,0.151,0.561,0.354,0.749L5.37,28.423L3.333,31.85l-1.088-0.646l-1.956,3.29
		l2.812,1.671L5.058,32.875z M1.109,34.172l1.209-2.035l0.359,0.212l-1.209,2.037L1.109,34.172z M1.872,34.625l1.209-2.035
		l0.359,0.215l-1.209,2.032L1.872,34.625z M2.635,35.079l1.208-2.036l0.36,0.215l-1.209,2.033L2.635,35.079z"/>
	<rect x="25.484" y="8.581" fill="#568AC8" width="11.044" height="2.228"/>
	<polygon fill="#568AC8" points="34.108,5.425 27.901,5.425 27.003,8.117 35.007,8.117 	"/>
	<rect x="28.743" y="1.566" fill="#568AC8" width="4.523" height="3.257"/>
	<path fill="#568AC8" d="M35.468,15.843c0-1.064-9.097-1.064-9.097,0c0,1.063,2.037,1.926,4.548,1.926
		C33.432,17.769,35.468,16.906,35.468,15.843z M30.919,16.191c-1.997,0-3.618-0.156-3.618-0.349c0-0.192,1.621-0.347,3.618-0.347
		c2.001,0,3.62,0.155,3.62,0.347C34.539,16.036,32.92,16.191,30.919,16.191z"/>
	<path fill="#D89028" d="M34.689,22.862h-7.455v5.108h7.455V22.862z M34.383,27.663h-6.84v-4.495h6.84V27.663z"/>
</g>
</svg>
