<svg xmlns="http://www.w3.org/2000/svg" width="30" height="30" viewBox="0 0 30 30"><defs><style>.a{fill:#c6cede;}</style></defs><path class="a" d="M17.447,17.932a2.476,2.476,0,0,0-.719.107,1.472,1.472,0,0,0-.416.313V16.261h-.979v6.233h.979v-.346a1.249,1.249,0,0,0,.414.306,2.936,2.936,0,0,0,.777.1.926.926,0,0,0,.658-.378,1.082,1.082,0,0,0,.229-.734v-2.5a1.276,1.276,0,0,0-.244-.844C17.988,17.9,17.754,17.932,17.447,17.932ZM17.4,21.439a.461.461,0,0,1-.084.311,1.311,1.311,0,0,1-.533.1.6.6,0,0,1-.232-.05.924.924,0,0,1-.229-.159v-2.81a.716.716,0,0,1,.2-.138.5.5,0,0,1,.207-.043,1.322,1.322,0,0,1,.571.115.52.52,0,0,1,.1.348v2.328Z"/><path class="a" d="M13.364,17.986V21.41a1.271,1.271,0,0,1-.3.242.58.58,0,0,1-.27.094.244.244,0,0,1-.2-.071.359.359,0,0,1-.06-.229V17.987h-.969v3.771a.916.916,0,0,0,.17.6.622.622,0,0,0,.507.2,1.205,1.205,0,0,0,.563-.146,2,2,0,0,0,.56-.416V22.5h.969V17.986Z"/><path class="a" d="M14.837,12.458a.478.478,0,0,0,.34-.119.433.433,0,0,0,.126-.329V9.18a.343.343,0,0,0-.128-.276.523.523,0,0,0-.338-.1.462.462,0,0,0-.313.1.352.352,0,0,0-.12.276h0v2.831a.459.459,0,0,0,.112.33A.421.421,0,0,0,14.837,12.458Z"/><path class="a" d="M8.088,17.05H9.217v5.221H10.31V17.05h1.129v-.889H8.088Z"/><path class="a" d="M20.537,17.8a1.523,1.523,0,0,0-1.061.368,1.225,1.225,0,0,0-.414.956v2.023a1.373,1.373,0,0,0,.375,1.021,1.391,1.391,0,0,0,1.024.371,1.507,1.507,0,0,0,1.087-.35,1.38,1.38,0,0,0,.365-1.045v-.23H20.92v.2a.9.9,0,0,1-.1.515.419.419,0,0,1-.337.116.371.371,0,0,1-.329-.137.935.935,0,0,1-.095-.494v-.85h1.854V19.122a1.286,1.286,0,0,0-.355-.98A1.426,1.426,0,0,0,20.537,17.8Zm.383,1.772h-.857v-.456a.61.61,0,0,1,.1-.4.393.393,0,0,1,.332-.125.38.38,0,0,1,.321.125.633.633,0,0,1,.1.4l0,.456Z"/><path class="a" d="M15,0A15,15,0,1,0,30,15,15,15,0,0,0,15,0Zm2.2,8.032h1.05v3.984a.434.434,0,0,0,.067.266.254.254,0,0,0,.215.083.6.6,0,0,0,.293-.109,1.443,1.443,0,0,0,.324-.28V8.032H20.2v5.2H19.15v-.575a2.252,2.252,0,0,1-.6.485,1.32,1.32,0,0,1-.609.167.661.661,0,0,1-.551-.235,1.109,1.109,0,0,1-.184-.695ZM13.323,9.22a1.192,1.192,0,0,1,.424-.962A1.716,1.716,0,0,1,14.889,7.9a1.538,1.538,0,0,1,1.07.377,1.26,1.26,0,0,1,.416.972v2.685a1.362,1.362,0,0,1-.408,1.046,1.592,1.592,0,0,1-1.126.379,1.54,1.54,0,0,1-1.1-.392,1.386,1.386,0,0,1-.414-1.054ZM10.458,5.77l.769,2.815H11.3l.733-2.815h1.2L11.86,9.892v3.336H10.676v-3.2L9.266,5.77ZM24.23,20.879a3.362,3.362,0,0,1-3.373,3.352H9.142A3.361,3.361,0,0,1,5.77,20.879v-3.23a3.257,3.257,0,0,1,3.372-3.226H20.859a3.278,3.278,0,0,1,3.371,3.251v3.2Z"/></svg>